<?xml version="1.0" standalone="no"?>
<!DOCTYPE svg PUBLIC "-//W3C//DTD SVG 20010904//EN"
 "http://www.w3.org/TR/2001/REC-SVG-20010904/DTD/svg10.dtd">
<svg version="1.0" xmlns="http://www.w3.org/2000/svg"
 width="1080.000000pt" height="1080.000000pt" viewBox="0 0 1080.000000 1080.000000"
 preserveAspectRatio="xMidYMid meet">

<g transform="translate(0.000000,1080.000000) scale(0.100000,-0.100000)"
fill="#000000" stroke="none">
<path d="M0 5400 l0 -5400 5400 0 5400 0 0 5400 0 5400 -5400 0 -5400 0 0
-5400z m5583 4143 c-101 -2 -265 -2 -365 0 -101 1 -19 2 182 2 201 0 283 -1
183 -2z m293 -47 c4 -10 24 -13 76 -12 48 1 72 -3 75 -11 4 -9 29 -13 79 -13
43 0 74 -4 74 -10 0 -5 22 -10 49 -10 28 0 53 -4 56 -10 3 -5 28 -10 56 -10
27 0 49 -4 49 -10 0 -5 20 -10 45 -10 25 0 45 -4 45 -10 0 -5 14 -10 30 -10
17 0 33 -6 36 -14 4 -10 16 -13 41 -9 27 5 38 2 45 -10 5 -10 21 -17 38 -17
17 0 30 -4 30 -10 0 -5 18 -10 40 -10 22 0 40 -4 40 -10 0 -5 16 -10 35 -10
19 0 35 -4 35 -10 0 -5 9 -10 20 -10 11 0 20 -4 20 -10 0 -5 14 -10 30 -10 18
0 33 -6 36 -15 4 -10 14 -13 30 -9 17 4 26 1 30 -11 4 -10 14 -15 25 -12 10 3
20 -1 23 -9 3 -8 15 -14 26 -14 11 0 20 -4 20 -10 0 -5 9 -10 20 -10 11 0 20
-4 20 -10 0 -5 13 -10 29 -10 17 0 33 -4 36 -10 3 -5 14 -10 25 -10 10 0 20
-7 24 -15 3 -8 12 -12 19 -9 8 3 17 -2 21 -11 3 -10 13 -15 20 -12 8 3 17 -1
20 -9 3 -8 15 -14 26 -14 11 0 20 -4 20 -10 0 -5 8 -10 18 -10 10 0 24 -9 32
-20 8 -11 22 -20 32 -20 9 0 20 -4 23 -10 3 -5 15 -10 26 -10 11 0 19 -7 19
-16 0 -9 7 -14 18 -12 9 2 25 -7 35 -19 10 -13 27 -23 38 -23 10 0 19 -4 19
-10 0 -5 8 -10 18 -10 10 0 24 -9 32 -20 8 -11 22 -20 31 -20 10 0 26 -11 37
-25 11 -14 26 -25 34 -25 7 0 20 -9 28 -20 8 -11 22 -20 31 -20 9 0 24 -9 34
-20 10 -11 24 -20 31 -20 8 0 32 -20 55 -45 23 -25 48 -45 56 -45 9 0 35 -21
59 -47 23 -26 46 -45 49 -41 4 3 37 -24 73 -60 37 -37 71 -67 77 -67 15 0 345
-331 345 -346 0 -6 25 -35 55 -64 30 -30 55 -60 55 -67 0 -7 21 -32 45 -56 25
-24 45 -49 45 -56 0 -7 14 -25 30 -41 17 -16 30 -35 30 -43 0 -8 11 -23 25
-34 14 -11 23 -23 20 -28 -3 -5 10 -24 30 -43 19 -19 35 -41 35 -51 0 -9 5
-16 10 -16 6 0 10 -8 10 -18 0 -9 11 -25 24 -36 14 -10 23 -23 20 -30 -3 -7 7
-21 21 -32 14 -10 25 -27 25 -36 0 -10 5 -18 10 -18 6 0 10 -9 10 -19 0 -11 5
-23 10 -26 6 -3 10 -14 10 -23 0 -10 9 -24 20 -32 11 -8 20 -22 20 -31 0 -9 7
-20 16 -23 9 -4 14 -13 10 -21 -3 -9 1 -18 9 -21 8 -4 15 -15 15 -25 0 -10 5
-19 10 -19 6 0 10 -9 10 -20 0 -11 5 -20 10 -20 6 0 10 -11 10 -25 0 -14 5
-25 10 -25 6 0 10 -9 10 -20 0 -11 5 -20 10 -20 6 0 10 -9 10 -19 0 -10 7 -22
16 -25 12 -4 14 -13 10 -31 -5 -18 -2 -27 9 -31 8 -4 15 -15 15 -25 0 -10 5
-19 10 -19 6 0 10 -9 10 -19 0 -11 5 -23 10 -26 6 -3 10 -19 10 -36 0 -16 5
-29 10 -29 6 0 10 -9 10 -20 0 -11 5 -20 10 -20 6 0 10 -13 10 -29 0 -16 7
-34 15 -41 9 -7 13 -21 9 -35 -4 -15 0 -24 10 -28 10 -4 16 -18 16 -37 0 -16
5 -30 10 -30 6 0 10 -13 10 -30 0 -16 5 -30 10 -30 6 0 10 -20 10 -45 0 -25 5
-45 10 -45 6 0 10 -18 10 -40 0 -22 5 -40 10 -40 6 0 10 -20 10 -44 0 -26 5
-46 12 -48 8 -3 12 -19 10 -41 -3 -27 1 -39 13 -43 12 -5 16 -17 14 -50 -2
-25 2 -49 9 -56 7 -7 12 -38 12 -69 0 -32 5 -61 10 -64 6 -3 10 -40 10 -81 0
-43 4 -74 10 -74 6 0 10 -45 10 -115 0 -70 4 -115 10 -115 6 0 10 -108 10
-305 0 -197 -4 -305 -10 -305 -6 0 -10 -41 -10 -104 0 -59 -4 -108 -10 -111
-5 -3 -10 -37 -10 -75 0 -38 -4 -72 -10 -75 -5 -3 -10 -32 -10 -64 0 -31 -5
-62 -12 -69 -7 -7 -11 -31 -9 -56 2 -33 -2 -45 -14 -50 -12 -4 -16 -16 -13
-43 2 -22 -2 -38 -10 -41 -7 -2 -12 -22 -12 -48 0 -24 -4 -44 -10 -44 -5 0
-10 -18 -10 -40 0 -22 -4 -40 -10 -40 -5 0 -10 -16 -10 -35 0 -19 -4 -35 -10
-35 -5 0 -10 -13 -10 -29 0 -16 -6 -31 -12 -33 -8 -3 -12 -19 -10 -41 3 -27
-1 -39 -13 -43 -12 -5 -14 -14 -10 -34 4 -20 2 -29 -9 -33 -9 -4 -16 -16 -16
-27 0 -11 -4 -20 -10 -20 -5 0 -10 -13 -10 -30 0 -16 -4 -30 -10 -30 -5 0 -10
-9 -10 -19 0 -11 -4 -23 -10 -26 -5 -3 -10 -19 -10 -36 0 -16 -4 -29 -10 -29
-5 0 -10 -9 -10 -19 0 -10 -7 -22 -16 -25 -9 -4 -14 -13 -10 -21 3 -9 -1 -18
-9 -21 -9 -4 -15 -19 -15 -35 0 -16 -4 -29 -10 -29 -5 0 -10 -9 -10 -20 0 -11
-4 -20 -10 -20 -5 0 -10 -11 -10 -25 0 -14 -4 -25 -10 -25 -5 0 -10 -8 -10
-18 0 -9 -11 -25 -24 -36 -14 -10 -22 -24 -19 -32 3 -8 -2 -17 -12 -20 -9 -4
-14 -13 -11 -21 3 -7 -1 -16 -9 -19 -8 -4 -15 -15 -15 -25 0 -10 -4 -19 -10
-19 -5 0 -10 -8 -10 -18 0 -11 -9 -27 -20 -37 -11 -10 -20 -26 -20 -35 0 -10
-7 -21 -16 -24 -8 -3 -12 -10 -9 -16 3 -5 -5 -21 -19 -34 -14 -13 -26 -30 -26
-37 0 -8 -9 -21 -20 -29 -11 -8 -20 -21 -20 -29 0 -7 -10 -23 -23 -35 -13 -12
-22 -27 -20 -33 2 -6 -8 -20 -22 -31 -14 -11 -25 -26 -25 -34 0 -8 -9 -23 -20
-33 -11 -10 -20 -23 -20 -29 0 -7 -20 -32 -45 -56 -25 -24 -45 -49 -45 -55 0
-6 -24 -35 -52 -65 -29 -30 -52 -58 -51 -62 2 -4 -38 -48 -87 -98 -50 -50 -90
-95 -90 -101 0 -13 -201 -214 -215 -214 -6 0 -34 -24 -63 -52 -28 -29 -57 -53
-64 -53 -7 0 -37 -25 -65 -55 -29 -30 -59 -55 -67 -55 -8 0 -28 -16 -45 -36
-17 -19 -35 -33 -40 -30 -4 3 -17 -4 -27 -15 -10 -11 -33 -27 -51 -36 -18 -8
-33 -19 -33 -24 0 -5 -8 -9 -18 -9 -9 0 -25 -11 -36 -24 -10 -14 -23 -23 -30
-20 -7 3 -21 -7 -32 -21 -10 -14 -26 -25 -34 -25 -9 0 -22 -9 -30 -20 -8 -11
-23 -20 -33 -20 -9 0 -20 -6 -23 -14 -3 -8 -11 -12 -19 -10 -7 3 -22 -6 -33
-20 -11 -14 -27 -26 -35 -26 -9 0 -19 -4 -22 -10 -3 -5 -14 -10 -23 -10 -10 0
-24 -9 -32 -20 -8 -11 -26 -20 -41 -20 -15 0 -29 -7 -33 -15 -3 -8 -12 -12
-21 -9 -9 4 -17 -1 -21 -11 -4 -9 -13 -14 -21 -11 -7 3 -16 -1 -19 -9 -4 -8
-14 -15 -24 -15 -11 0 -22 -4 -25 -10 -3 -5 -15 -10 -26 -10 -10 0 -19 -4 -19
-10 0 -5 -9 -10 -20 -10 -11 0 -20 -4 -20 -10 0 -5 -9 -10 -20 -10 -11 0 -20
-4 -20 -10 0 -5 -14 -10 -30 -10 -17 0 -33 -6 -36 -14 -3 -8 -12 -12 -21 -9
-9 4 -20 -1 -25 -11 -7 -13 -17 -16 -34 -12 -17 5 -26 2 -30 -9 -4 -8 -15 -15
-25 -15 -10 0 -19 -4 -19 -10 0 -5 -13 -10 -29 -10 -17 0 -33 -5 -36 -10 -3
-6 -19 -10 -36 -10 -16 0 -29 -4 -29 -10 0 -5 -13 -10 -29 -10 -16 0 -31 -6
-33 -12 -3 -8 -20 -11 -45 -10 -30 3 -42 -1 -47 -14 -5 -13 -14 -15 -42 -11
-25 4 -37 2 -41 -9 -3 -8 -18 -14 -34 -14 -16 0 -29 -4 -29 -10 0 -5 -25 -10
-55 -10 -30 0 -55 -4 -55 -10 0 -5 -18 -10 -39 -10 -22 0 -43 -5 -46 -10 -3
-6 -28 -10 -56 -10 -27 0 -49 -4 -49 -10 0 -6 -28 -10 -64 -10 -41 0 -66 -4
-68 -12 -3 -8 -35 -13 -98 -14 -59 -1 -96 -6 -98 -13 -5 -16 -859 -16 -864 0
-2 7 -42 12 -108 14 -68 1 -105 6 -108 13 -2 7 -26 12 -58 12 -30 0 -54 5 -54
10 0 6 -22 10 -49 10 -28 0 -53 5 -56 10 -3 6 -28 10 -56 10 -27 0 -49 5 -49
10 0 6 -20 10 -45 10 -25 0 -45 5 -45 10 0 6 -18 10 -40 10 -27 0 -43 5 -46
15 -4 10 -13 13 -26 9 -12 -3 -27 1 -38 11 -13 12 -30 16 -51 13 -20 -3 -33 0
-36 9 -3 7 -18 13 -34 13 -16 0 -29 5 -29 10 0 6 -13 10 -29 10 -17 0 -33 5
-36 10 -3 6 -19 10 -36 10 -16 0 -29 5 -29 10 0 6 -9 10 -19 10 -10 0 -21 7
-25 15 -4 11 -13 14 -31 9 -18 -4 -27 -2 -31 10 -5 12 -15 15 -35 12 -18 -2
-30 1 -33 10 -3 8 -15 14 -26 14 -11 0 -20 5 -20 10 0 6 -9 10 -20 10 -11 0
-20 5 -20 10 0 6 -9 10 -20 10 -11 0 -20 5 -20 10 0 6 -9 10 -19 10 -11 0 -23
5 -26 10 -3 6 -14 10 -25 10 -10 0 -20 7 -24 15 -3 10 -14 14 -30 11 -15 -3
-27 1 -30 10 -3 8 -15 14 -26 14 -11 0 -20 5 -20 10 0 6 -8 10 -18 10 -10 0
-24 9 -32 20 -8 11 -22 20 -32 20 -9 0 -20 5 -23 10 -3 6 -13 10 -22 10 -8 0
-24 12 -35 26 -11 14 -26 23 -33 20 -8 -2 -16 2 -19 10 -3 8 -14 14 -23 14
-10 0 -25 9 -33 20 -8 11 -21 20 -30 20 -8 0 -24 11 -34 25 -11 14 -26 23 -33
21 -8 -3 -16 1 -19 9 -4 8 -12 15 -20 15 -8 0 -28 13 -46 30 -17 16 -36 30
-43 30 -6 0 -22 11 -35 25 -12 13 -27 22 -31 19 -5 -3 -23 11 -40 30 -17 20
-37 36 -45 36 -8 0 -38 25 -67 55 -28 30 -58 55 -65 55 -7 0 -36 24 -64 53
-29 28 -57 52 -63 52 -14 0 -260 246 -260 260 0 6 -40 50 -88 99 -48 49 -87
93 -87 98 0 5 -19 29 -43 53 -24 23 -41 47 -40 52 2 5 -13 24 -32 43 -19 19
-35 39 -35 45 0 6 -16 26 -35 45 -19 18 -32 37 -29 42 3 5 -6 18 -20 29 -14
11 -26 28 -26 38 0 9 -9 23 -20 31 -11 8 -20 21 -20 30 0 8 -11 23 -24 34 -14
10 -22 24 -19 32 3 8 -2 17 -12 20 -9 4 -14 12 -11 19 2 7 -6 21 -20 31 -13
11 -24 26 -24 36 0 9 -5 20 -10 23 -6 3 -10 15 -10 26 0 10 -4 19 -10 19 -5 0
-10 8 -10 18 0 9 -11 25 -24 36 -14 10 -22 24 -19 32 3 8 -2 17 -11 20 -9 3
-16 15 -16 25 0 10 -4 19 -10 19 -5 0 -10 9 -10 20 0 11 -4 20 -10 20 -5 0
-10 9 -10 19 0 11 -5 23 -10 26 -5 3 -10 15 -10 26 0 10 -4 19 -10 19 -5 0
-10 9 -10 19 0 10 -7 22 -16 25 -12 4 -14 13 -10 31 5 18 2 27 -9 31 -8 4 -15
15 -15 25 0 10 -4 19 -10 19 -5 0 -10 9 -10 19 0 11 -5 23 -10 26 -6 3 -10 19
-10 36 0 16 -4 29 -10 29 -5 0 -10 14 -10 30 0 17 -4 30 -10 30 -5 0 -10 8
-10 19 0 10 -7 24 -15 31 -9 7 -13 21 -9 35 4 15 0 24 -10 28 -10 4 -16 18
-16 37 0 16 -4 30 -10 30 -5 0 -10 14 -10 30 0 17 -4 30 -10 30 -5 0 -10 20
-10 45 0 25 -4 45 -10 45 -5 0 -10 18 -10 40 0 22 -4 40 -10 40 -5 0 -10 20
-10 44 0 26 -5 46 -12 48 -8 3 -12 19 -10 41 3 27 -1 39 -13 43 -12 5 -16 17
-14 50 2 25 -2 49 -9 56 -7 7 -12 38 -12 69 0 32 -5 61 -10 64 -5 3 -10 37
-10 75 0 38 -4 72 -10 75 -6 4 -10 55 -10 121 0 69 -4 114 -10 114 -6 0 -10
112 -10 315 0 203 4 315 10 315 6 0 10 41 10 104 0 59 4 108 10 111 5 3 10 37
10 75 0 38 5 72 10 75 6 3 10 32 10 64 0 31 5 62 12 69 7 7 11 31 9 56 -2 32
2 45 14 49 11 5 14 16 12 43 -3 24 0 37 9 41 9 3 14 21 14 49 0 24 5 44 10 44
6 0 10 18 10 40 0 22 5 40 10 40 6 0 10 16 10 35 0 19 5 35 10 35 6 0 10 12
10 26 0 14 6 32 14 40 8 7 12 23 9 34 -3 13 1 22 11 26 13 5 15 14 11 34 -4
20 -2 29 9 33 10 4 16 19 16 37 0 16 5 30 10 30 6 0 10 9 10 20 0 11 5 20 10
20 6 0 10 13 10 29 0 17 5 33 10 36 6 3 10 14 10 25 0 10 6 20 14 23 9 4 12
14 9 27 -4 13 1 26 12 34 10 7 15 18 11 25 -4 6 0 14 8 17 9 3 16 15 16 25 0
10 5 19 10 19 6 0 10 9 10 19 0 11 4 23 10 26 5 3 10 15 10 26 0 10 5 19 10
19 6 0 10 9 10 20 0 11 5 20 10 20 6 0 10 9 10 19 0 10 7 21 15 25 8 3 12 12
9 21 -4 8 1 17 10 21 9 3 16 15 16 25 0 10 5 19 10 19 6 0 10 7 10 15 0 9 9
25 20 37 11 12 20 30 20 40 0 10 5 18 10 18 6 0 10 7 10 16 0 9 12 25 26 36
14 12 23 27 20 35 -3 7 1 16 9 19 8 4 15 14 15 23 0 9 9 23 20 31 11 8 20 20
20 28 0 7 11 25 24 39 14 15 23 30 20 34 -2 4 12 21 31 38 19 17 35 36 35 44
0 7 14 26 30 42 17 16 30 34 30 41 0 7 20 32 45 56 24 24 45 49 45 56 0 7 25
37 55 67 30 29 55 58 55 64 0 14 351 366 365 366 6 0 41 30 77 66 37 37 69 64
72 62 3 -3 26 15 51 41 26 25 53 46 60 46 7 0 27 16 44 35 17 19 37 35 44 35
8 0 22 9 32 20 10 11 25 20 34 20 9 0 23 9 31 20 8 11 21 20 28 20 8 0 23 11
34 25 11 14 27 25 37 25 9 0 23 9 31 20 8 11 22 20 32 20 10 0 18 4 18 9 0 5
16 16 35 25 19 9 35 21 35 26 0 4 9 6 20 3 14 -4 20 0 20 11 0 9 8 16 19 16
11 0 23 5 26 10 3 6 14 10 23 10 10 0 24 9 32 20 8 11 22 20 32 20 10 0 18 5
18 10 0 6 9 10 20 10 11 0 23 6 26 14 3 8 12 12 20 9 7 -3 17 2 20 12 4 9 13
14 21 11 7 -3 16 1 19 9 4 8 14 15 24 15 11 0 22 5 25 10 3 6 15 10 26 10 10
0 19 5 19 10 0 6 14 10 30 10 17 0 30 5 30 10 0 6 9 10 20 10 11 0 23 6 26 14
3 8 12 12 21 9 9 -4 20 1 25 11 7 12 17 16 33 12 15 -4 25 -1 29 9 3 9 18 15
36 15 16 0 30 5 30 10 0 6 9 10 20 10 11 0 20 5 20 10 0 6 16 10 35 10 19 0
35 5 35 10 0 6 14 10 30 10 17 0 30 5 30 10 0 6 17 10 39 10 22 0 44 6 51 15
7 9 21 13 35 9 15 -4 24 0 28 10 4 11 19 16 47 16 22 0 40 5 40 10 0 6 20 10
45 10 25 0 45 5 45 10 0 6 22 10 49 10 28 0 53 5 56 10 3 6 28 10 56 10 27 0
49 5 49 10 0 6 28 10 64 10 40 0 66 4 68 12 3 7 32 11 86 11 59 0 82 3 86 13
8 21 944 21 952 0z m-1278 -23 c-10 -2 -28 -2 -40 0 -13 2 -5 4 17 4 22 1 32
-1 23 -4z m1640 0 c-10 -2 -26 -2 -35 0 -10 3 -2 5 17 5 19 0 27 -2 18 -5z
m-1755 -20 c-13 -2 -33 -2 -45 0 -13 2 -3 4 22 4 25 0 35 -2 23 -4z m1880 0
c-13 -2 -33 -2 -45 0 -13 2 -3 4 22 4 25 0 35 -2 23 -4z m-1976 -19 c-3 -3
-12 -4 -19 -1 -8 3 -5 6 6 6 11 1 17 -2 13 -5z m2050 0 c-3 -3 -12 -4 -19 -1
-8 3 -5 6 6 6 11 1 17 -2 13 -5z m300 -90 c-3 -3 -12 -4 -19 -1 -8 3 -5 6 6 6
11 1 17 -2 13 -5z m-2740 -20 c-3 -3 -12 -4 -19 -1 -8 3 -5 6 6 6 11 1 17 -2
13 -5z m2830 0 c-3 -3 -12 -4 -19 -1 -8 3 -5 6 6 6 11 1 17 -2 13 -5z m-3150
-130 c-3 -3 -12 -4 -19 -1 -8 3 -5 6 6 6 11 1 17 -2 13 -5z m3516 -21 c-7 -2
-19 -2 -25 0 -7 3 -2 5 12 5 14 0 19 -2 13 -5z m957 -603 c0 -5 -2 -10 -4 -10
-3 0 -8 5 -11 10 -3 6 -1 10 4 10 6 0 11 -4 11 -10z m150 -130 c0 -5 -2 -10
-4 -10 -3 0 -8 5 -11 10 -3 6 -1 10 4 10 6 0 11 -4 11 -10z m645 -710 c3 -5 1
-10 -4 -10 -6 0 -11 5 -11 10 0 6 2 10 4 10 3 0 8 -4 11 -10z m45 -60 c0 -5
-5 -10 -11 -10 -5 0 -7 5 -4 10 3 6 8 10 11 10 2 0 4 -4 4 -10z m-7290 -194
c0 -3 -4 -8 -10 -11 -5 -3 -10 -1 -10 4 0 6 5 11 10 11 6 0 10 -2 10 -4z
m7420 -6 c0 -5 -2 -10 -4 -10 -3 0 -8 5 -11 10 -3 6 -1 10 4 10 6 0 11 -4 11
-10z m-7493 -112 c-3 -8 -6 -5 -6 6 -1 11 2 17 5 13 3 -3 4 -12 1 -19z m-240
-470 c-3 -8 -6 -5 -6 6 -1 11 2 17 5 13 3 -3 4 -12 1 -19z m-40 -110 c-3 -7
-5 -2 -5 12 0 14 2 19 5 13 2 -7 2 -19 0 -25z m8110 10 c-3 -8 -6 -5 -6 6 -1
11 2 17 5 13 3 -3 4 -12 1 -19z m-8200 -240 c-3 -8 -6 -5 -6 6 -1 11 2 17 5
13 3 -3 4 -12 1 -19z m8290 0 c-3 -8 -6 -5 -6 6 -1 11 2 17 5 13 3 -3 4 -12 1
-19z m-8310 -70 c-3 -8 -6 -5 -6 6 -1 11 2 17 5 13 3 -3 4 -12 1 -19z m8330 0
c-3 -8 -6 -5 -6 6 -1 11 2 17 5 13 3 -3 4 -12 1 -19z m-8350 -60 c-3 -7 -5 -2
-5 12 0 14 2 19 5 13 2 -7 2 -19 0 -25z m8370 -15 c-3 -10 -5 -2 -5 17 0 19 2
27 5 18 2 -10 2 -26 0 -35z m-8390 -70 c-3 -10 -5 -2 -5 17 0 19 2 27 5 18 2
-10 2 -26 0 -35z m8410 -20 c-3 -10 -5 -2 -5 17 0 19 2 27 5 18 2 -10 2 -26 0
-35z m-8500 -390 c-3 -10 -5 -4 -5 12 0 17 2 24 5 18 2 -7 2 -21 0 -30z m8590
-20 c-3 -10 -5 -4 -5 12 0 17 2 24 5 18 2 -7 2 -21 0 -30z m-8610 -115 c-2
-18 -4 -4 -4 32 0 36 2 50 4 33 2 -18 2 -48 0 -65z m8630 -20 c-2 -18 -4 -4
-4 32 0 36 2 50 4 33 2 -18 2 -48 0 -65z m-8650 -180 c-2 -29 -3 -8 -3 47 0
55 1 79 3 53 2 -26 2 -71 0 -100z m8670 -40 c-2 -29 -3 -6 -3 52 0 58 1 81 3
53 2 -29 2 -77 0 -105z m20 -440 c-2 -35 -3 -7 -3 62 0 69 1 97 3 63 2 -35 2
-91 0 -125z m-8690 -375 c-2 -32 -3 -8 -3 52 0 61 1 87 3 58 2 -29 2 -78 0
-110z m8670 -5 c-2 -29 -3 -8 -3 47 0 55 1 79 3 53 2 -26 2 -71 0 -100z
m-8650 -170 c-2 -18 -4 -4 -4 32 0 36 2 50 4 33 2 -18 2 -48 0 -65z m8630 0
c-2 -18 -4 -4 -4 32 0 36 2 50 4 33 2 -18 2 -48 0 -65z m-8610 -110 c-2 -13
-4 -5 -4 17 -1 22 1 32 4 23 2 -10 2 -28 0 -40z m8590 15 c-3 -10 -5 -4 -5 12
0 17 2 24 5 18 2 -7 2 -21 0 -30z m-8500 -420 c-3 -10 -5 -2 -5 17 0 19 2 27
5 18 2 -10 2 -26 0 -35z m8410 0 c-3 -10 -5 -2 -5 17 0 19 2 27 5 18 2 -10 2
-26 0 -35z m-20 -65 c-3 -7 -5 -2 -5 12 0 14 2 19 5 13 2 -7 2 -19 0 -25z
m-8370 -25 c-3 -10 -5 -2 -5 17 0 19 2 27 5 18 2 -10 2 -26 0 -35z m8350 -45
c-3 -7 -5 -2 -5 12 0 14 2 19 5 13 2 -7 2 -19 0 -25z m-8240 -250 c-3 -8 -6
-5 -6 6 -1 11 2 17 5 13 3 -3 4 -12 1 -19z m8150 0 c-3 -8 -6 -5 -6 6 -1 11 2
17 5 13 3 -3 4 -12 1 -19z m-20 -60 c-3 -8 -6 -5 -6 6 -1 11 2 17 5 13 3 -3 4
-12 1 -19z m-8110 -10 c-3 -8 -6 -5 -6 6 -1 11 2 17 5 13 3 -3 4 -12 1 -19z
m8090 -40 c-3 -8 -6 -5 -6 6 -1 11 2 17 5 13 3 -3 4 -12 1 -19z m-7847 -438
c0 -5 -2 -10 -4 -10 -3 0 -8 5 -11 10 -3 6 -1 10 4 10 6 0 11 -4 11 -10z
m7380 -404 c0 -3 -4 -8 -10 -11 -5 -3 -10 -1 -10 4 0 6 5 11 10 11 6 0 10 -2
10 -4z m-7083 -78 c-3 -8 -6 -5 -6 6 -1 11 2 17 5 13 3 -3 4 -12 1 -19z m6953
-98 c0 -5 -5 -10 -11 -10 -5 0 -7 5 -4 10 3 6 8 10 11 10 2 0 4 -4 4 -10z
m-1010 -944 c0 -3 -4 -8 -10 -11 -5 -3 -10 -1 -10 4 0 6 5 11 10 11 6 0 10 -2
10 -4z m-4600 -156 c0 -5 -4 -10 -10 -10 -5 0 -10 5 -10 10 0 6 5 10 10 10 6
0 10 -4 10 -10z m4360 0 c0 -5 -4 -10 -10 -10 -5 0 -10 5 -10 10 0 6 5 10 10
10 6 0 10 -4 10 -10z m-183 -106 c-3 -3 -12 -4 -19 -1 -8 3 -5 6 6 6 11 1 17
-2 13 -5z m-3450 -240 c-3 -3 -12 -4 -19 -1 -8 3 -5 6 6 6 11 1 17 -2 13 -5z
m2910 0 c-3 -3 -12 -4 -19 -1 -8 3 -5 6 6 6 11 1 17 -2 13 -5z m-2850 -20 c-3
-3 -12 -4 -19 -1 -8 3 -5 6 6 6 11 1 17 -2 13 -5z m2786 -1 c-7 -2 -19 -2 -25
0 -7 3 -2 5 12 5 14 0 19 -2 13 -5z m-2716 -19 c-3 -3 -12 -4 -19 -1 -8 3 -5
6 6 6 11 1 17 -2 13 -5z m2650 0 c-3 -3 -12 -4 -19 -1 -8 3 -5 6 6 6 11 1 17
-2 13 -5z m-2329 -91 c-10 -2 -26 -2 -35 0 -10 3 -2 5 17 5 19 0 27 -2 18 -5z
m2015 0 c-13 -2 -33 -2 -45 0 -13 2 -3 4 22 4 25 0 35 -2 23 -4z m-1920 -20
c-13 -2 -33 -2 -45 0 -13 2 -3 4 22 4 25 0 35 -2 23 -4z m1825 0 c-10 -2 -26
-2 -35 0 -10 3 -2 5 17 5 19 0 27 -2 18 -5z m-1701 -19 c-3 -3 -12 -4 -19 -1
-8 3 -5 6 6 6 11 1 17 -2 13 -5z m1570 0 c-3 -3 -12 -4 -19 -1 -8 3 -5 6 6 6
11 1 17 -2 13 -5z m-1470 -20 c-3 -3 -12 -4 -19 -1 -8 3 -5 6 6 6 11 1 17 -2
13 -5z m1380 0 c-3 -3 -12 -4 -19 -1 -8 3 -5 6 6 6 11 1 17 -2 13 -5z m-554
-51 c-84 -2 -222 -2 -305 0 -84 1 -16 3 152 3 168 0 236 -2 153 -3z"/>
<path d="M5055 9230 c-3 -6 -52 -10 -111 -10 -63 0 -104 -4 -104 -10 0 -6 -28
-10 -65 -10 -37 0 -65 -4 -65 -10 0 -6 -28 -10 -65 -10 -37 0 -65 -4 -65 -10
0 -5 -22 -10 -50 -10 -35 0 -52 -5 -58 -17 -7 -12 -18 -15 -45 -10 -25 4 -37
1 -41 -9 -3 -8 -19 -14 -36 -14 -16 0 -30 -4 -30 -10 0 -5 -18 -10 -39 -10
-22 0 -43 -4 -46 -10 -3 -5 -19 -10 -36 -10 -16 0 -29 -4 -29 -10 0 -5 -13
-10 -29 -10 -17 0 -33 -4 -36 -10 -3 -5 -19 -10 -36 -10 -20 0 -29 -5 -29 -16
0 -10 -6 -13 -19 -9 -12 3 -21 0 -25 -10 -3 -9 -18 -15 -36 -15 -16 0 -30 -4
-30 -10 0 -5 -13 -10 -30 -10 -16 0 -30 -4 -30 -10 0 -5 -11 -10 -25 -10 -14
0 -25 -4 -25 -10 0 -5 -9 -10 -20 -10 -11 0 -20 -4 -20 -10 0 -5 -13 -10 -29
-10 -16 0 -31 -6 -35 -15 -3 -8 -12 -12 -21 -9 -8 4 -17 -1 -21 -10 -3 -9 -15
-16 -25 -16 -10 0 -19 -4 -19 -10 0 -5 -9 -10 -19 -10 -11 0 -23 -4 -26 -10
-3 -5 -15 -10 -26 -10 -10 0 -19 -4 -19 -10 0 -5 -9 -10 -20 -10 -11 0 -20 -4
-20 -10 0 -5 -9 -10 -19 -10 -10 0 -21 -7 -25 -15 -3 -8 -11 -12 -19 -9 -7 2
-22 -7 -33 -21 -10 -14 -27 -25 -36 -25 -10 0 -18 -4 -18 -10 0 -5 -8 -10 -18
-10 -11 0 -27 -9 -37 -20 -10 -11 -26 -20 -37 -20 -10 0 -18 -7 -18 -15 0 -9
-6 -12 -15 -9 -9 4 -23 -4 -36 -20 -11 -14 -28 -26 -38 -26 -9 0 -23 -9 -31
-20 -8 -11 -21 -20 -28 -20 -8 0 -29 -15 -47 -34 -18 -19 -36 -32 -39 -28 -4
3 -21 -11 -40 -31 -19 -20 -40 -37 -49 -37 -8 0 -33 -20 -56 -45 -23 -25 -45
-43 -50 -41 -4 3 -52 -40 -107 -94 -54 -55 -105 -100 -112 -100 -15 0 -81 -69
-82 -85 0 -5 -50 -59 -110 -119 -61 -60 -110 -114 -110 -120 0 -7 -20 -32 -45
-56 -24 -24 -42 -47 -39 -51 2 -4 -11 -23 -31 -42 -19 -19 -35 -40 -35 -46 0
-7 -15 -27 -32 -43 -18 -17 -33 -36 -33 -43 0 -7 -10 -22 -22 -33 -13 -11 -23
-26 -23 -33 0 -8 -9 -21 -20 -29 -11 -8 -20 -22 -20 -31 0 -9 -9 -24 -20 -34
-11 -10 -20 -26 -20 -35 0 -10 -7 -21 -16 -24 -9 -3 -14 -11 -12 -18 3 -7 -6
-22 -19 -34 -13 -12 -23 -29 -23 -38 0 -9 -4 -16 -10 -16 -5 0 -10 -9 -10 -20
0 -11 -4 -20 -10 -20 -5 0 -10 -9 -10 -20 0 -11 -4 -20 -10 -20 -5 0 -10 -9
-10 -20 0 -11 -7 -23 -15 -26 -10 -4 -13 -13 -10 -25 4 -13 1 -19 -9 -19 -9 0
-16 -8 -16 -19 0 -11 -5 -23 -10 -26 -5 -3 -10 -15 -10 -26 0 -10 -4 -19 -10
-19 -5 0 -10 -9 -10 -20 0 -11 -4 -20 -10 -20 -5 0 -10 -9 -10 -20 0 -11 -4
-20 -10 -20 -5 0 -10 -9 -10 -20 0 -11 -7 -23 -15 -26 -10 -4 -13 -14 -9 -30
4 -17 1 -26 -11 -30 -10 -4 -15 -14 -12 -25 3 -10 -1 -20 -9 -23 -8 -3 -14
-19 -14 -36 0 -16 -4 -30 -10 -30 -5 0 -10 -9 -10 -20 0 -11 -4 -20 -10 -20
-5 0 -10 -16 -10 -35 0 -19 -4 -35 -10 -35 -5 0 -10 -13 -10 -29 0 -17 -6 -31
-15 -35 -11 -4 -14 -13 -9 -31 4 -18 2 -27 -10 -31 -12 -4 -15 -16 -12 -40 2
-20 -2 -38 -10 -45 -8 -6 -14 -24 -14 -40 0 -16 -4 -29 -10 -29 -5 0 -10 -18
-10 -39 0 -22 -4 -43 -10 -46 -5 -3 -10 -28 -10 -56 0 -27 -4 -49 -10 -49 -5
0 -10 -24 -10 -54 0 -34 -5 -56 -12 -58 -8 -3 -11 -21 -9 -51 2 -33 -2 -49
-12 -52 -10 -4 -13 -26 -13 -87 1 -56 -3 -82 -11 -85 -10 -4 -13 -40 -13 -134
0 -79 -4 -129 -10 -129 -6 0 -10 -57 -10 -150 0 -93 4 -150 10 -150 6 0 10
-63 10 -168 0 -111 4 -172 11 -179 6 -6 11 -45 12 -87 0 -53 4 -79 14 -88 10
-8 14 -28 12 -67 -2 -35 1 -56 9 -59 7 -2 12 -25 12 -58 0 -30 5 -54 10 -54 6
0 10 -18 10 -39 0 -22 4 -43 10 -46 5 -3 10 -24 10 -46 0 -21 5 -39 10 -39 6
0 10 -17 10 -39 0 -22 6 -44 15 -51 9 -7 13 -21 9 -35 -4 -15 0 -24 11 -29 13
-4 15 -13 11 -31 -5 -18 -2 -27 9 -31 9 -4 15 -18 15 -35 0 -16 5 -29 10 -29
6 0 10 -16 10 -35 0 -19 5 -35 10 -35 6 0 10 -13 10 -30 0 -16 5 -30 10 -30 6
0 10 -14 10 -30 0 -17 6 -33 14 -36 8 -3 12 -13 9 -25 -4 -13 0 -19 12 -19 11
0 15 -5 12 -14 -3 -8 1 -20 9 -26 8 -7 14 -25 14 -41 0 -16 5 -29 10 -29 6 0
10 -9 10 -20 0 -11 5 -20 10 -20 6 0 10 -9 10 -20 0 -11 5 -20 10 -20 6 0 10
-9 10 -19 0 -11 5 -23 10 -26 6 -3 10 -15 10 -26 0 -11 7 -19 16 -19 10 0 13
-6 9 -19 -3 -12 0 -21 10 -25 8 -3 15 -15 15 -26 0 -11 5 -20 10 -20 6 0 10
-9 10 -20 0 -11 5 -20 10 -20 6 0 10 -9 10 -20 0 -11 4 -20 9 -20 5 0 16 -16
25 -35 9 -19 21 -35 27 -35 6 0 7 -5 3 -11 -3 -6 5 -23 18 -37 13 -15 30 -39
38 -54 7 -16 17 -28 22 -28 4 0 8 -9 8 -20 0 -11 5 -20 10 -20 6 0 10 -7 10
-16 0 -8 16 -30 35 -48 19 -19 35 -40 35 -47 0 -8 9 -21 20 -29 11 -8 20 -21
20 -30 0 -8 21 -34 45 -58 25 -24 45 -49 45 -56 0 -7 25 -37 55 -65 30 -29 53
-56 50 -60 -6 -10 410 -425 431 -429 8 -2 33 -24 56 -48 22 -24 46 -44 52 -44
6 0 31 -19 56 -42 25 -24 49 -42 53 -40 5 1 18 -9 29 -23 11 -14 26 -25 35
-25 8 0 28 -13 43 -30 15 -16 34 -30 40 -30 7 0 23 -12 36 -26 13 -14 28 -23
33 -19 5 3 18 -6 29 -20 11 -14 27 -25 35 -25 9 0 19 -4 22 -10 3 -5 14 -10
23 -10 10 0 24 -9 32 -20 8 -11 22 -20 31 -20 9 0 20 -7 23 -16 3 -9 13 -14
20 -11 8 3 17 -1 20 -9 3 -8 15 -14 26 -14 11 0 20 -4 20 -10 0 -5 9 -10 20
-10 11 0 20 -4 20 -10 0 -5 9 -10 19 -10 11 0 23 -4 26 -10 3 -5 15 -10 26
-10 10 0 19 -4 19 -10 0 -5 9 -10 19 -10 10 0 22 -7 25 -16 3 -9 13 -14 20
-11 8 3 17 -1 20 -10 4 -9 13 -13 21 -9 9 3 18 -1 21 -9 4 -8 15 -15 25 -15
10 0 19 -4 19 -10 0 -5 9 -10 19 -10 11 0 23 -4 26 -10 3 -5 19 -10 36 -10 16
0 29 -4 29 -10 0 -5 14 -10 30 -10 17 0 30 -4 30 -10 0 -5 9 -10 20 -10 11 0
23 -7 27 -16 4 -11 13 -14 30 -9 16 4 25 1 29 -10 4 -8 18 -15 34 -15 16 0 32
-5 35 -10 3 -6 19 -10 36 -10 16 0 29 -4 29 -10 0 -5 13 -10 29 -10 17 0 33
-4 36 -10 3 -5 19 -10 36 -10 16 0 29 -4 29 -10 0 -5 18 -10 40 -10 26 0 43
-5 46 -14 4 -10 16 -13 41 -9 27 5 38 2 45 -10 6 -12 23 -17 58 -17 28 0 50
-4 50 -10 0 -6 28 -10 65 -10 37 0 65 -4 65 -10 0 -6 35 -10 85 -10 50 0 85
-4 85 -10 0 -6 43 -10 110 -10 67 0 110 -4 110 -10 0 -6 97 -10 270 -10 173 0
270 4 270 10 0 6 47 10 120 10 73 0 120 4 120 10 0 6 35 10 85 10 50 0 85 4
85 10 0 6 28 10 65 10 37 0 65 4 65 10 0 6 18 10 40 10 24 0 43 5 46 13 3 9
22 13 54 12 32 -1 51 3 54 12 3 7 19 13 36 13 16 0 30 5 30 10 0 6 18 10 39
10 22 0 43 5 46 10 3 6 19 10 36 10 16 0 29 5 29 10 0 6 14 10 30 10 17 0 30
5 30 10 0 6 13 10 29 10 16 0 34 7 41 15 7 9 21 13 35 9 15 -4 24 0 28 10 4 9
16 16 27 16 11 0 20 5 20 10 0 6 14 10 30 10 17 0 30 5 30 10 0 6 9 10 19 10
11 0 23 5 26 10 3 6 19 10 36 10 16 0 29 5 29 10 0 6 9 10 19 10 10 0 21 7 25
15 3 8 12 12 21 9 9 -4 17 1 21 11 4 9 13 14 21 11 7 -3 16 1 19 9 4 8 15 15
25 15 10 0 19 5 19 10 0 6 9 10 19 10 11 0 23 4 26 10 3 5 15 10 26 10 10 0
19 5 19 10 0 6 9 10 20 10 11 0 20 5 20 10 0 6 9 10 20 10 11 0 23 6 26 14 3
8 12 12 20 9 7 -3 17 2 20 11 3 9 14 16 23 16 9 0 23 9 31 20 8 11 22 20 32
20 9 0 20 4 23 10 3 5 13 10 22 10 8 0 24 11 35 25 11 14 24 23 29 20 5 -4 20
5 33 19 13 14 29 26 36 26 6 0 25 14 40 30 15 17 35 30 43 30 9 0 24 11 35 25
11 14 24 24 29 23 4 -2 28 16 53 40 25 23 50 42 56 42 6 0 30 20 53 45 23 25
47 45 54 45 15 0 378 362 388 387 4 10 35 45 68 78 34 33 61 65 61 72 0 7 20
31 45 54 25 23 45 48 45 56 0 8 14 28 30 43 16 15 30 34 30 40 0 7 12 23 26
36 14 13 23 28 20 33 -3 5 6 17 19 27 14 10 25 25 25 32 0 7 9 22 20 34 11 12
20 29 20 38 0 9 11 23 25 30 17 9 23 19 20 31 -3 10 1 19 10 23 8 3 15 15 15
26 0 11 5 20 10 20 6 0 10 8 10 18 0 10 9 24 20 32 11 8 20 22 20 32 0 10 5
18 10 18 6 0 10 9 10 20 0 11 7 23 15 26 10 4 13 13 10 25 -5 14 -1 19 10 19
12 0 16 6 12 19 -3 12 1 22 9 25 8 3 14 15 14 26 0 11 5 20 10 20 6 0 10 9 10
20 0 11 5 20 10 20 6 0 10 14 10 30 0 17 5 30 10 30 6 0 10 8 10 19 0 10 6 24
14 31 8 6 13 17 10 24 -3 8 2 16 10 19 9 4 16 17 16 31 0 14 5 28 10 31 6 3
10 15 10 26 0 10 5 19 10 19 6 0 10 14 10 30 0 17 5 30 10 30 6 0 10 16 10 35
0 19 5 35 10 35 6 0 10 13 10 29 0 17 6 31 15 35 11 4 14 13 9 31 -4 18 -2 27
11 31 11 5 15 14 11 29 -4 14 0 28 9 35 9 7 15 29 15 51 0 22 5 39 10 39 6 0
10 18 10 39 0 22 5 43 10 46 6 3 10 28 10 56 0 27 5 49 10 49 6 0 10 25 10 55
0 30 5 55 10 55 6 0 10 28 10 64 0 45 4 65 14 69 9 4 13 25 13 72 0 36 5 71
12 78 7 7 11 67 11 179 0 105 4 168 10 168 6 0 10 35 10 85 0 50 -4 85 -10 85
-6 0 -10 63 -10 170 0 127 -3 172 -12 175 -9 4 -13 30 -12 86 0 58 -3 82 -13
86 -9 4 -13 25 -13 69 0 36 -4 64 -10 64 -5 0 -10 25 -10 55 0 30 -4 55 -10
55 -5 0 -10 22 -10 49 0 28 -4 53 -10 56 -5 3 -10 24 -10 46 0 21 -4 39 -10
39 -5 0 -10 17 -10 39 0 22 -6 44 -15 51 -9 7 -13 21 -9 35 4 15 0 24 -11 29
-11 4 -15 13 -12 26 3 11 -1 27 -9 34 -8 8 -14 26 -14 40 0 14 -4 26 -10 26
-5 0 -10 16 -10 35 0 19 -4 35 -10 35 -5 0 -10 14 -10 30 0 17 -4 30 -10 30
-5 0 -10 13 -10 29 0 16 -6 31 -15 35 -8 3 -12 12 -9 21 4 9 -1 17 -11 21 -9
4 -14 12 -11 20 3 7 -2 18 -10 24 -8 7 -14 25 -14 41 0 16 -4 29 -10 29 -5 0
-10 9 -10 20 0 11 -4 20 -10 20 -5 0 -10 9 -10 20 0 11 -4 20 -10 20 -5 0 -10
9 -10 19 0 11 -4 23 -10 26 -5 3 -10 15 -10 26 0 11 -7 19 -16 19 -10 0 -13 6
-9 19 3 12 0 21 -10 25 -8 3 -15 15 -15 26 0 11 -4 20 -10 20 -5 0 -10 9 -10
20 0 11 -4 20 -10 20 -5 0 -10 8 -10 18 0 10 -9 24 -20 32 -11 8 -20 23 -20
33 0 9 -7 20 -15 23 -8 4 -12 10 -9 16 3 5 -4 22 -17 36 -29 33 -49 67 -49 85
0 7 -9 19 -20 27 -11 8 -20 20 -20 28 0 7 -16 28 -35 46 -19 19 -35 40 -35 47
0 8 -9 21 -20 29 -11 8 -20 21 -20 29 0 8 -16 29 -35 48 -20 19 -33 38 -31 42
3 4 -15 27 -39 51 -25 24 -45 49 -45 56 0 6 -49 60 -110 120 -60 60 -110 114
-110 119 0 16 -46 65 -61 65 -8 0 -57 43 -109 95 -52 52 -101 95 -107 95 -7 0
-31 20 -54 45 -23 25 -48 45 -55 45 -8 0 -34 21 -59 47 -25 25 -48 43 -51 40
-3 -3 -16 5 -29 19 -12 13 -29 24 -36 24 -8 0 -21 9 -29 20 -8 11 -21 20 -29
20 -7 0 -24 11 -37 25 -12 14 -29 22 -37 20 -7 -3 -19 5 -27 20 -7 14 -21 25
-30 25 -9 0 -25 9 -35 20 -10 11 -26 20 -37 20 -10 0 -18 5 -18 10 0 6 -8 10
-18 10 -9 0 -26 11 -36 25 -11 14 -26 23 -33 21 -8 -3 -16 1 -19 9 -4 8 -15
15 -25 15 -10 0 -19 5 -19 10 0 6 -9 10 -20 10 -11 0 -20 5 -20 10 0 6 -9 10
-19 10 -11 0 -23 5 -26 10 -3 6 -15 10 -26 10 -10 0 -19 5 -19 10 0 6 -9 10
-19 10 -10 0 -21 7 -25 15 -4 11 -13 14 -31 9 -18 -4 -27 -2 -31 10 -3 9 -15
16 -25 16 -10 0 -19 5 -19 10 0 6 -9 10 -19 10 -11 0 -23 5 -26 10 -3 6 -15
10 -26 10 -10 0 -19 5 -19 10 0 6 -13 10 -30 10 -16 0 -30 5 -30 10 0 6 -14
10 -30 10 -18 0 -33 6 -36 15 -4 10 -13 13 -25 10 -13 -4 -19 -1 -19 9 0 11
-9 16 -29 16 -17 0 -33 5 -36 10 -3 6 -19 10 -36 10 -16 0 -29 5 -29 10 0 6
-13 10 -29 10 -17 0 -33 5 -36 10 -3 6 -24 10 -46 10 -21 0 -39 5 -39 10 0 6
-14 10 -30 10 -17 0 -33 6 -36 14 -4 10 -16 13 -41 9 -27 -5 -38 -2 -45 10 -6
12 -23 17 -58 17 -28 0 -50 5 -50 10 0 6 -28 10 -65 10 -37 0 -65 4 -65 10 0
6 -28 10 -65 10 -37 0 -65 4 -65 10 0 6 -41 10 -104 10 -59 0 -108 4 -111 10
-4 6 -130 10 -345 10 -215 0 -341 -4 -345 -10z m153 -27 c-27 -2 -69 -2 -95 0
-27 2 -5 3 47 3 52 0 74 -1 48 -3z m480 0 c-27 -2 -69 -2 -95 0 -27 2 -5 3 47
3 52 0 74 -1 48 -3z m-700 -20 c-27 -2 -69 -2 -95 0 -27 2 -5 3 47 3 52 0 74
-1 48 -3z m920 0 c-27 -2 -69 -2 -95 0 -27 2 -5 3 47 3 52 0 74 -1 48 -3z
m-1110 -20 c-16 -2 -40 -2 -55 0 -16 2 -3 4 27 4 30 0 43 -2 28 -4z m1260 0
c-16 -2 -40 -2 -55 0 -16 2 -3 4 27 4 30 0 43 -2 28 -4z m-1425 -20 c-7 -2
-21 -2 -30 0 -10 3 -4 5 12 5 17 0 24 -2 18 -5z m1570 0 c-7 -2 -21 -2 -30 0
-10 3 -4 5 12 5 17 0 24 -2 18 -5z m-1926 -89 c-3 -3 -12 -4 -19 -1 -8 3 -5 6
6 6 11 1 17 -2 13 -5z m2270 0 c-3 -3 -12 -4 -19 -1 -8 3 -5 6 6 6 11 1 17 -2
13 -5z m-2334 -21 c-7 -2 -19 -2 -25 0 -7 3 -2 5 12 5 14 0 19 -2 13 -5z
m2400 0 c-7 -2 -19 -2 -25 0 -7 3 -2 5 12 5 14 0 19 -2 13 -5z m64 -19 c-3 -3
-12 -4 -19 -1 -8 3 -5 6 6 6 11 1 17 -2 13 -5z m-1189 -83 c2 -6 17 -11 33
-11 16 0 29 -4 29 -10 0 -5 16 -10 35 -10 19 0 35 -4 35 -10 0 -5 8 -10 18
-10 10 0 24 -9 32 -20 8 -11 20 -20 27 -20 16 0 93 -75 93 -91 0 -6 10 -21 23
-33 13 -12 22 -27 19 -34 -2 -7 3 -15 12 -18 9 -3 16 -15 16 -25 0 -10 5 -19
10 -19 6 0 10 -20 10 -45 0 -25 5 -45 10 -45 6 0 10 -38 10 -95 0 -88 1 -95
20 -95 18 0 20 -7 20 -84 0 -47 -4 -88 -10 -91 -5 -3 -10 -24 -10 -46 0 -21
-4 -39 -10 -39 -5 0 -10 -8 -10 -18 0 -23 -50 -72 -73 -72 -12 0 -17 -8 -17
-29 0 -17 -4 -33 -10 -36 -6 -4 -10 -55 -10 -121 0 -69 4 -114 10 -114 6 0 10
-7 10 -16 0 -9 10 -25 23 -36 12 -11 22 -27 22 -36 0 -10 8 -17 17 -17 9 0 25
-10 36 -23 11 -12 27 -22 36 -22 9 0 16 -4 16 -10 0 -5 9 -10 19 -10 11 0 23
-4 26 -10 3 -5 14 -10 25 -10 10 0 20 -6 23 -14 4 -9 14 -12 28 -9 14 4 25 0
31 -11 6 -11 16 -14 33 -10 18 4 27 1 31 -10 4 -9 18 -16 34 -16 16 0 32 -4
35 -10 3 -5 19 -10 36 -10 16 0 29 -4 29 -10 0 -5 14 -10 30 -10 17 0 30 -4
30 -10 0 -5 9 -10 19 -10 11 0 23 -4 26 -10 3 -5 13 -10 22 -10 8 0 24 -11 35
-25 11 -14 25 -25 31 -25 18 0 107 -93 107 -112 0 -10 6 -18 14 -18 9 0 12 -7
9 -20 -4 -14 0 -20 12 -20 11 0 15 -5 10 -19 -3 -12 0 -21 10 -25 9 -3 15 -18
15 -36 0 -16 5 -30 10 -30 6 0 10 -97 10 -270 0 -173 4 -270 10 -270 6 0 10
-47 10 -120 0 -73 4 -120 10 -120 6 0 10 -38 10 -95 0 -57 4 -95 10 -95 6 0
10 -28 10 -64 0 -46 4 -65 14 -69 10 -4 14 -21 12 -62 -1 -36 2 -59 11 -67 8
-6 13 -33 13 -69 0 -33 4 -59 10 -59 6 0 10 -43 10 -110 0 -67 4 -110 10 -110
6 0 10 -88 10 -245 0 -157 -4 -245 -10 -245 -5 0 -10 -20 -10 -45 0 -45 0 -45
-35 -45 l-35 0 0 299 c0 189 -4 302 -10 306 -5 3 -10 46 -10 94 0 65 -4 92
-15 101 -10 8 -13 28 -11 67 1 38 -2 57 -11 60 -9 4 -13 26 -13 69 0 36 -4 64
-10 64 -6 0 -10 32 -10 75 0 43 -4 75 -10 75 -6 0 -10 38 -10 95 0 57 -4 95
-10 95 -6 0 -10 43 -10 110 0 67 -4 110 -10 110 -6 0 -10 96 -10 269 0 235 -2
270 -16 275 -10 4 -13 13 -9 26 4 14 -1 27 -19 44 -14 13 -26 28 -26 35 0 18
-119 133 -130 126 -6 -3 -13 1 -16 9 -3 9 -15 16 -25 16 -10 0 -19 5 -19 10 0
6 -13 10 -29 10 -17 0 -33 5 -36 10 -3 6 -19 10 -36 10 -16 0 -29 5 -29 10 0
6 -13 10 -30 10 -16 0 -30 5 -30 10 0 6 -11 10 -24 10 -13 0 -26 7 -30 15 -4
11 -13 14 -29 10 -17 -5 -26 -2 -30 9 -4 10 -18 16 -37 16 -16 0 -30 5 -30 10
0 6 -9 10 -20 10 -11 0 -20 5 -20 10 0 6 -6 10 -14 10 -7 0 -26 6 -40 14 -38
19 -146 125 -146 142 0 8 -4 14 -10 14 -5 0 -10 11 -10 25 0 14 -4 25 -10 25
-5 0 -10 22 -10 49 0 28 -4 53 -10 56 -5 3 -10 15 -10 26 0 10 5 19 10 19 6 0
10 28 10 65 0 37 4 65 10 65 6 0 10 12 10 27 0 19 15 41 55 79 46 45 55 59 55
88 0 19 5 38 10 41 6 3 10 24 10 46 0 32 -3 39 -20 39 -12 0 -20 7 -20 16 0 9
-8 23 -17 30 -17 12 -17 13 0 19 14 6 17 20 17 91 0 49 -4 84 -10 84 -5 0 -10
18 -10 40 0 28 -5 43 -16 47 -8 3 -13 12 -10 20 3 7 -1 16 -9 19 -8 4 -15 14
-15 23 0 9 -26 41 -57 71 -62 58 -93 80 -118 80 -8 0 -15 5 -15 10 0 6 -18 10
-39 10 -22 0 -43 5 -46 10 -3 6 -40 10 -81 10 -43 0 -74 -4 -74 -10 0 -5 -13
-10 -30 -10 -16 0 -30 -4 -30 -10 0 -5 -6 -10 -13 -10 -22 0 -77 -31 -89 -50
-7 -10 -19 -15 -30 -12 -13 3 -18 -1 -18 -15 0 -10 -15 -34 -34 -52 -19 -18
-32 -39 -30 -46 3 -7 -2 -15 -11 -19 -13 -4 -15 -13 -11 -31 5 -18 2 -27 -9
-31 -12 -5 -15 -29 -15 -133 0 -115 -2 -128 -20 -141 -15 -11 -20 -26 -20 -62
0 -26 5 -50 10 -53 6 -3 10 -24 10 -46 0 -28 4 -39 15 -39 22 0 75 -50 75 -72
0 -10 5 -18 10 -18 6 0 10 -13 10 -30 0 -16 5 -30 10 -30 6 0 10 -47 10 -120
0 -73 -4 -120 -10 -120 -5 0 -10 -13 -10 -29 0 -20 -9 -36 -26 -50 -14 -11
-23 -24 -20 -30 7 -11 -71 -91 -89 -91 -6 0 -20 -9 -30 -20 -10 -11 -26 -20
-37 -20 -10 0 -18 -4 -18 -10 0 -5 -9 -10 -20 -10 -11 0 -20 -4 -20 -10 0 -5
-14 -10 -30 -10 -19 0 -33 -6 -37 -16 -4 -10 -13 -14 -28 -10 -14 4 -28 0 -35
-9 -7 -8 -25 -15 -41 -15 -16 0 -29 -4 -29 -10 0 -5 -9 -10 -20 -10 -11 0 -20
-4 -20 -10 0 -5 -13 -10 -29 -10 -17 0 -33 -4 -36 -10 -3 -5 -19 -10 -36 -10
-16 0 -29 -4 -29 -10 0 -5 -9 -10 -19 -10 -10 0 -22 -7 -25 -16 -3 -8 -10 -12
-16 -9 -11 7 -130 -108 -130 -126 0 -7 -12 -22 -26 -35 -18 -17 -23 -30 -19
-44 4 -13 1 -22 -9 -26 -14 -5 -16 -40 -16 -275 0 -173 -4 -269 -10 -269 -6 0
-10 -41 -10 -104 0 -59 -4 -108 -10 -111 -6 -3 -10 -48 -10 -101 0 -56 -4 -94
-10 -94 -6 0 -10 -32 -10 -75 0 -43 -4 -75 -10 -75 -6 0 -10 -28 -10 -64 0
-42 -4 -65 -13 -69 -8 -3 -12 -24 -11 -62 1 -40 -3 -58 -12 -62 -11 -4 -14
-29 -14 -98 0 -52 -4 -97 -10 -100 -6 -4 -10 -117 -10 -306 l0 -299 -35 0
c-28 0 -35 4 -35 20 0 11 -4 20 -10 20 -6 0 -10 103 -10 289 0 183 4 292 10
296 6 3 10 48 10 101 0 56 4 94 10 94 6 0 10 28 10 64 0 43 4 65 13 69 8 3 12
24 12 62 -1 38 3 59 12 62 9 4 13 27 13 79 0 43 4 74 10 74 6 0 10 38 10 94 0
53 4 98 10 101 6 3 10 52 10 111 0 63 4 104 10 104 6 0 10 93 10 260 0 167 4
260 10 260 6 0 10 18 10 39 0 31 6 44 26 60 16 13 24 27 20 36 -3 9 0 15 9 15
8 0 15 7 15 17 0 21 114 140 129 135 6 -2 14 3 17 12 3 9 14 16 24 16 11 0 22
5 25 10 3 6 15 10 26 10 10 0 19 5 19 10 0 6 14 10 30 10 17 0 30 5 30 10 0 6
13 10 29 10 17 0 33 5 36 10 3 6 19 10 35 10 16 0 30 7 34 16 3 8 11 12 17 8
7 -4 18 1 25 11 8 11 21 16 34 12 13 -3 23 0 27 9 3 8 18 14 33 14 16 0 32 5
35 10 3 6 15 10 26 10 10 0 19 5 19 10 0 6 7 10 15 10 20 0 135 116 135 135 0
8 5 15 10 15 6 0 10 41 10 104 0 59 -4 108 -10 111 -5 3 -10 18 -10 32 0 28
-24 52 -52 53 -11 0 -18 8 -18 20 0 11 -4 20 -10 20 -5 0 -10 11 -10 25 0 14
-4 25 -10 25 -5 0 -10 14 -10 30 0 17 -4 30 -10 30 -6 0 -10 40 -10 100 0 93
1 100 20 100 19 0 20 7 20 105 0 63 4 105 10 105 6 0 10 20 10 45 0 25 5 45
10 45 6 0 10 7 10 15 0 9 11 26 25 39 14 13 25 29 25 35 0 18 115 131 134 131
9 0 16 5 16 10 0 6 9 10 20 10 11 0 20 5 20 10 0 6 9 10 19 10 11 0 23 5 26
10 3 6 23 10 45 10 21 0 40 6 43 13 6 16 170 14 175 -2z m-1581 -7 c-3 -3 -12
-4 -19 -1 -8 3 -5 6 6 6 11 1 17 -2 13 -5z m3010 0 c-3 -3 -12 -4 -19 -1 -8 3
-5 6 6 6 11 1 17 -2 13 -5z m-1384 -131 c-7 -2 -19 -2 -25 0 -7 3 -2 5 12 5
14 0 19 -2 13 -5z m-2093 -83 c0 -5 -5 -10 -11 -10 -5 0 -7 5 -4 10 3 6 8 10
11 10 2 0 4 -4 4 -10z m3935 0 c3 -5 1 -10 -4 -10 -6 0 -11 5 -11 10 0 6 2 10
4 10 3 0 8 -4 11 -10z m175 -110 c0 -5 -2 -10 -4 -10 -3 0 -8 5 -11 10 -3 6
-1 10 4 10 6 0 11 -4 11 -10z m-2663 -22 c-3 -8 -6 -5 -6 6 -1 11 2 17 5 13 3
-3 4 -12 1 -19z m-20 -145 c-2 -21 -4 -4 -4 37 0 41 2 58 4 38 2 -21 2 -55 0
-75z m160 75 c-3 -7 -5 -2 -5 12 0 14 2 19 5 13 2 -7 2 -19 0 -25z m910 -80
c-2 -18 -4 -4 -4 32 0 36 2 50 4 33 2 -18 2 -48 0 -65z m-160 -15 c-3 -10 -5
-4 -5 12 0 17 2 24 5 18 2 -7 2 -21 0 -30z m0 -55 c-3 -8 -6 -5 -6 6 -1 11 2
17 5 13 3 -3 4 -12 1 -19z m-790 -130 c-3 -7 -5 -2 -5 12 0 14 2 19 5 13 2 -7
2 -19 0 -25z m830 -20 c-3 -7 -5 -2 -5 12 0 14 2 19 5 13 2 -7 2 -19 0 -25z
m-830 -20 c-3 -8 -6 -5 -6 6 -1 11 2 17 5 13 3 -3 4 -12 1 -19z m810 -65 c-3
-10 -5 -2 -5 17 0 19 2 27 5 18 2 -10 2 -26 0 -35z m160 -20 c-3 -10 -5 -2 -5
17 0 19 2 27 5 18 2 -10 2 -26 0 -35z m-1110 -5 c-3 -7 -5 -2 -5 12 0 14 2 19
5 13 2 -7 2 -19 0 -25z m1090 -50 c-3 -8 -6 -5 -6 6 -1 11 2 17 5 13 3 -3 4
-12 1 -19z m2303 12 c0 -5 -2 -10 -4 -10 -3 0 -8 5 -11 10 -3 6 -1 10 4 10 6
0 11 -4 11 -10z m-2867 -57 c-7 -2 -19 -2 -25 0 -7 3 -2 5 12 5 14 0 19 -2 13
-5z m111 -94 c-24 -25 -35 -29 -84 -29 -49 0 -60 4 -83 28 -47 49 -38 62 47
62 59 0 75 3 80 16 5 14 12 11 37 -16 l31 -32 -28 -29z m203 59 c-3 -7 -5 -2
-5 12 0 14 2 19 5 13 2 -7 2 -19 0 -25z m-570 -20 c-3 -8 -6 -5 -6 6 -1 11 2
17 5 13 3 -3 4 -12 1 -19z m-157 2 c0 -5 -2 -10 -4 -10 -3 0 -8 5 -11 10 -3 6
-1 10 4 10 6 0 11 -4 11 -10z m707 -97 c-2 -16 -4 -3 -4 27 0 30 2 43 4 28 2
-16 2 -40 0 -55z m-530 -100 c-2 -32 -3 -8 -3 52 0 61 1 87 3 58 2 -29 2 -78
0 -110z m690 105 c-2 -13 -4 -5 -4 17 -1 22 1 32 4 23 2 -10 2 -28 0 -40z
m-850 -105 c-2 -27 -3 -5 -3 47 0 52 1 74 3 48 2 -27 2 -69 0 -95z m328 127
c3 -5 1 -10 -4 -10 -6 0 -11 5 -11 10 0 6 2 10 4 10 3 0 8 -4 11 -10z m205 0
c0 -5 -5 -10 -11 -10 -5 0 -7 5 -4 10 3 6 8 10 11 10 2 0 4 -4 4 -10z m-117
-60 c27 0 47 5 50 13 3 8 19 11 46 9 l41 -4 0 -44 c0 -42 -1 -44 -28 -44 -16
0 -37 -9 -47 -20 -19 -21 -89 -28 -100 -10 -3 6 -15 10 -26 10 -10 0 -19 5
-19 10 0 6 -8 10 -17 10 -10 0 -26 12 -37 26 -18 25 -18 26 2 44 25 23 64 30
78 13 6 -7 32 -13 57 -13z m3087 -20 c0 -5 -2 -10 -4 -10 -3 0 -8 5 -11 10 -3
6 -1 10 4 10 6 0 11 -4 11 -10z m-2813 -102 c-2 -13 -4 -3 -4 22 0 25 2 35 4
23 2 -13 2 -33 0 -45z m160 20 c-3 -7 -5 -2 -5 12 0 14 2 19 5 13 2 -7 2 -19
0 -25z m-547 -8 c0 -5 -5 -10 -11 -10 -5 0 -7 5 -4 10 3 6 8 10 11 10 2 0 4
-4 4 -10z m210 6 c0 -3 -4 -8 -10 -11 -5 -3 -10 -1 -10 4 0 6 5 11 10 11 6 0
10 -2 10 -4z m-175 -36 c3 -5 15 -10 26 -10 10 0 19 -4 19 -10 0 -5 14 -10 30
-10 17 0 30 5 30 10 0 6 13 10 28 10 15 0 33 5 39 11 8 8 19 3 41 -18 l30 -29
-29 -27 c-16 -15 -36 -27 -43 -27 -8 0 -23 -10 -33 -22 -12 -16 -29 -23 -53
-23 -24 0 -41 7 -53 23 -10 12 -30 22 -43 22 -33 0 -58 26 -58 59 0 19 6 27
22 29 12 2 22 8 22 13 0 12 17 12 25 -1z m-198 -22 c-3 -8 -6 -5 -6 6 -1 11 2
17 5 13 3 -3 4 -12 1 -19z m198 -148 c3 -5 14 -10 25 -10 10 0 20 -6 23 -13 6
-17 49 -15 55 1 2 7 17 12 32 12 16 0 32 5 35 10 17 28 69 -6 69 -45 0 -25
-25 -55 -47 -55 -8 0 -17 -7 -21 -15 -3 -8 -11 -12 -19 -9 -7 2 -22 -7 -33
-21 -27 -35 -60 -32 -102 11 -19 19 -40 33 -47 30 -20 -7 -65 32 -65 56 0 12
8 29 18 39 19 19 67 25 77 9z m-778 -66 c-3 -3 -12 -4 -19 -1 -8 3 -5 6 6 6
11 1 17 -2 13 -5z m1750 0 c-3 -3 -12 -4 -19 -1 -8 3 -5 6 6 6 11 1 17 -2 13
-5z m-1814 -21 c-7 -2 -19 -2 -25 0 -7 3 -2 5 12 5 14 0 19 -2 13 -5z m1874 1
c-3 -3 -12 -4 -19 -1 -8 3 -5 6 6 6 11 1 17 -2 13 -5z m-1038 -58 c10 -12 8
-13 -8 -9 -12 3 -18 9 -15 14 7 12 10 11 23 -5z m208 -2 c-3 -3 -12 -4 -19 -1
-8 3 -5 6 6 6 11 1 17 -2 13 -5z m-243 -29 c3 -10 14 -14 30 -11 17 3 30 -3
43 -20 18 -24 73 -35 73 -14 0 6 9 10 19 10 10 0 22 7 25 16 4 11 13 14 31 10
16 -4 27 -1 33 10 7 13 13 11 40 -16 18 -17 32 -41 32 -52 0 -27 -28 -58 -52
-58 -10 0 -18 -4 -18 -10 0 -5 -7 -10 -16 -10 -10 0 -31 -15 -49 -32 -26 -28
-38 -33 -77 -33 -39 1 -51 6 -76 33 -17 18 -37 32 -46 32 -9 0 -16 5 -16 10 0
6 -8 10 -17 10 -25 0 -53 30 -53 57 0 28 47 82 71 83 9 0 19 -7 23 -15z m1231
5 c3 -5 1 -10 -4 -10 -6 0 -11 5 -11 10 0 6 2 10 4 10 3 0 8 -4 11 -10z
m-1358 -82 c-3 -7 -5 -2 -5 12 0 14 2 19 5 13 2 -7 2 -19 0 -25z m3703 28 c0
-3 -4 -8 -10 -11 -5 -3 -10 -1 -10 4 0 6 5 11 10 11 6 0 10 -2 10 -4z m-4460
-66 c0 -5 -5 -10 -11 -10 -5 0 -7 5 -4 10 3 6 8 10 11 10 2 0 4 -4 4 -10z
m2035 0 c3 -5 1 -10 -4 -10 -6 0 -11 5 -11 10 0 6 2 10 4 10 3 0 8 -4 11 -10z
m-865 -44 c0 -3 -4 -8 -10 -11 -5 -3 -10 -1 -10 4 0 6 5 11 10 11 6 0 10 -2
10 -4z m-1420 -26 c0 -5 -5 -10 -11 -10 -5 0 -7 5 -4 10 3 6 8 10 11 10 2 0 4
-4 4 -10z m1380 0 c0 -5 -4 -10 -10 -10 -5 0 -10 5 -10 10 0 6 5 10 10 10 6 0
10 -4 10 -10z m-303 -6 c-3 -3 -12 -4 -19 -1 -8 3 -5 6 6 6 11 1 17 -2 13 -5z
m53 -24 c0 -5 9 -10 19 -10 11 0 23 -4 26 -10 3 -5 14 -10 25 -10 10 0 20 -6
23 -14 7 -17 69 -14 75 3 2 6 12 11 22 11 10 0 22 5 25 10 3 6 15 10 26 10 10
0 19 5 19 10 0 19 30 10 60 -17 29 -25 41 -63 20 -63 -5 0 -10 -9 -10 -20 0
-19 -15 -25 -48 -21 -7 1 -15 -5 -18 -14 -4 -10 -13 -13 -25 -10 -14 5 -19 1
-19 -11 0 -24 -29 -54 -52 -54 -10 0 -18 -4 -18 -10 0 -5 -13 -10 -28 -10 -20
0 -41 13 -72 45 -25 25 -50 43 -56 41 -7 -3 -15 2 -18 11 -4 8 -12 13 -20 10
-22 -9 -46 30 -46 73 0 36 3 40 25 40 14 0 25 5 25 10 0 6 9 10 20 10 11 0 20
-4 20 -10z m143 -27 c-7 -2 -19 -2 -25 0 -7 3 -2 5 12 5 14 0 19 -2 13 -5z
m-266 -50 c-3 -10 -5 -2 -5 17 0 19 2 27 5 18 2 -10 2 -26 0 -35z m-1080 -406
c-1 -67 -3 -9 -3 128 0 138 2 192 3 122 2 -71 2 -183 0 -250z m2670 -19 c-1
-73 -3 -14 -3 132 0 146 2 205 3 133 2 -73 2 -193 0 -265z m-2510 40 c-1 -57
-3 -11 -3 102 0 113 2 159 3 103 2 -57 2 -149 0 -205z m2350 -20 c-1 -62 -3
-14 -3 107 0 121 2 172 3 113 2 -59 2 -158 0 -220z m-1350 286 c-3 -3 -12 -4
-19 -1 -8 3 -5 6 6 6 11 1 17 -2 13 -5z m350 0 c-3 -3 -12 -4 -19 -1 -8 3 -5
6 6 6 11 1 17 -2 13 -5z m-262 -54 c20 -11 42 -20 50 -20 8 0 15 -4 15 -10 0
-5 9 -10 20 -10 11 0 20 5 20 10 0 6 9 10 20 10 11 0 20 5 20 10 0 6 9 10 19
10 11 0 23 5 26 10 10 16 104 12 121 -4 8 -8 14 -26 14 -39 0 -31 -46 -77 -76
-77 -15 0 -42 -19 -77 -55 -71 -73 -103 -75 -165 -10 -24 25 -50 45 -58 45 -8
0 -14 5 -14 10 0 6 -9 10 -19 10 -11 0 -23 5 -26 10 -3 6 -15 10 -26 10 -16 0
-19 7 -19 55 l0 55 60 0 c41 0 70 -6 95 -20z m-188 -52 c-2 -13 -4 -3 -4 22 0
25 2 35 4 23 2 -13 2 -33 0 -45z m550 10 c-3 -8 -6 -5 -6 6 -1 11 2 17 5 13 3
-3 4 -12 1 -19z m-1187 -70 c16 -18 30 -43 30 -55 0 -12 5 -25 10 -28 6 -3 10
-24 10 -46 0 -21 5 -39 10 -39 6 0 10 -20 10 -45 0 -25 5 -45 10 -45 6 0 10
-18 10 -39 0 -22 5 -43 10 -46 6 -3 10 -23 10 -45 0 -26 5 -40 16 -44 12 -4
14 -13 10 -31 -5 -18 -2 -27 9 -31 9 -4 15 -18 15 -35 0 -16 5 -29 10 -29 6 0
10 -20 10 -45 0 -25 5 -45 10 -45 6 0 10 -13 10 -30 0 -16 5 -30 10 -30 6 0
10 -25 10 -55 0 -30 5 -55 10 -55 6 0 10 -22 10 -48 0 -26 5 -53 11 -59 14
-14 15 -236 0 -241 -6 -2 -11 -28 -11 -62 0 -32 -4 -62 -10 -65 -5 -3 -10 -28
-10 -56 0 -27 -4 -49 -10 -49 -5 0 -10 -20 -10 -45 0 -25 -4 -45 -10 -45 -5 0
-10 -18 -10 -39 0 -22 -4 -43 -10 -46 -5 -3 -10 -23 -10 -45 0 -24 -5 -40 -15
-43 -10 -4 -13 -17 -10 -42 4 -26 1 -37 -10 -41 -10 -4 -15 -20 -15 -44 0 -22
-4 -42 -10 -45 -5 -3 -10 -22 -10 -40 0 -34 -25 -75 -45 -75 -18 0 -45 39 -45
65 0 14 5 25 10 25 6 0 10 28 10 65 0 37 4 65 10 65 6 0 10 17 10 39 0 21 6
44 14 51 10 7 13 24 10 46 -3 25 0 36 11 40 10 4 15 20 15 45 0 21 5 39 10 39
6 0 10 20 10 45 0 25 5 45 10 45 6 0 10 22 10 49 0 28 5 53 10 56 6 3 10 44
10 91 0 49 4 84 10 84 6 0 10 28 10 65 0 37 -4 65 -10 65 -6 0 -10 32 -10 75
0 43 -4 75 -10 75 -5 0 -10 18 -10 39 0 22 -4 43 -10 46 -5 3 -10 24 -10 46 0
32 -3 39 -20 39 -17 0 -20 -7 -20 -49 0 -28 -4 -53 -10 -56 -5 -3 -10 -28 -10
-56 0 -27 -4 -49 -10 -49 -6 0 -10 -43 -10 -109 0 -75 -4 -111 -12 -113 -8 -3
-11 -33 -10 -95 1 -72 -2 -92 -13 -97 -11 -4 -15 -21 -15 -56 0 -27 -4 -50
-10 -50 -5 0 -10 -20 -10 -45 0 -25 -4 -45 -10 -45 -5 0 -10 -18 -10 -39 0
-22 -4 -43 -10 -46 -5 -3 -10 -24 -10 -46 0 -21 -4 -39 -10 -39 -5 0 -10 -13
-10 -29 0 -16 -6 -34 -14 -40 -8 -7 -12 -21 -8 -33 3 -13 -1 -24 -12 -30 -13
-7 -16 -17 -12 -34 5 -17 2 -26 -9 -30 -9 -4 -15 -18 -15 -35 0 -16 -4 -29
-10 -29 -5 0 -10 -9 -10 -20 0 -30 -28 -36 -51 -12 -20 22 -26 72 -9 72 6 0
10 20 10 44 0 30 5 46 15 50 11 4 14 13 10 29 -5 17 -2 26 9 30 11 4 16 19 16
47 0 22 5 40 10 40 6 0 10 16 10 35 0 19 5 35 10 35 6 0 10 18 10 40 0 22 5
40 10 40 6 0 10 25 10 55 0 30 5 55 10 55 6 0 10 22 10 48 0 26 5 53 11 59 7
7 11 49 11 101 0 65 4 92 13 96 9 3 13 33 13 107 0 65 4 105 11 107 6 2 11 28
11 58 0 30 5 54 10 54 6 0 10 22 10 49 0 28 5 53 10 56 6 3 10 28 10 56 0 27
5 49 10 49 6 0 10 31 10 74 0 41 -4 78 -10 81 -5 3 -10 33 -10 66 0 33 -4 59
-10 59 -5 0 -10 20 -10 45 0 25 -4 45 -10 45 -5 0 -10 21 -10 47 0 28 -6 53
-16 64 -15 16 -14 20 3 43 10 14 19 26 21 26 1 0 16 -15 32 -32z m1870 7 c22
-23 22 -26 7 -43 -10 -10 -17 -35 -17 -55 0 -20 -4 -37 -10 -37 -5 0 -10 -25
-10 -55 0 -30 -4 -55 -10 -55 -5 0 -10 -22 -10 -49 0 -28 -4 -53 -10 -56 -6
-3 -10 -52 -10 -111 0 -63 4 -104 10 -104 6 0 10 -25 10 -55 0 -30 5 -55 10
-55 6 0 10 -22 10 -49 0 -28 5 -53 10 -56 6 -3 10 -28 10 -55 0 -27 5 -50 11
-52 8 -3 11 -44 11 -130 -1 -100 2 -127 13 -132 10 -3 14 -23 13 -71 -1 -38 4
-71 10 -77 7 -7 12 -33 12 -59 0 -26 5 -51 10 -54 6 -3 10 -24 10 -46 0 -21 5
-39 10 -39 6 0 10 -18 10 -39 0 -22 5 -43 10 -46 6 -3 10 -23 10 -45 0 -25 5
-40 15 -44 11 -4 14 -13 9 -30 -4 -17 -1 -27 12 -34 11 -6 15 -17 12 -30 -4
-12 0 -26 8 -33 8 -6 14 -29 14 -50 0 -22 5 -39 10 -39 6 0 10 -7 10 -15 0
-17 -30 -55 -44 -55 -20 0 -46 34 -46 60 0 16 -7 30 -15 34 -11 4 -14 13 -9
30 4 17 1 27 -12 34 -11 6 -15 17 -12 30 4 12 0 26 -8 33 -8 6 -14 24 -14 40
0 16 -4 29 -10 29 -5 0 -10 14 -10 30 0 17 -4 30 -10 30 -5 0 -10 20 -10 45 0
25 -4 45 -10 45 -5 0 -10 18 -10 39 0 22 -4 43 -10 46 -5 3 -10 28 -10 55 0
33 -5 50 -15 53 -11 5 -14 22 -12 76 1 49 -2 72 -10 76 -10 3 -13 39 -13 129
0 72 -4 127 -10 131 -5 3 -10 33 -10 66 0 33 -4 59 -10 59 -5 0 -10 23 -10 51
0 30 -6 56 -14 65 -22 21 -26 17 -26 -26 0 -22 -4 -40 -10 -40 -5 0 -10 -20
-10 -45 0 -25 -4 -45 -10 -45 -5 0 -10 -25 -10 -55 0 -30 -4 -55 -10 -55 -6 0
-10 -45 -10 -114 0 -66 4 -117 10 -121 6 -3 10 -33 10 -65 0 -32 5 -62 10 -65
6 -3 10 -28 10 -56 0 -27 5 -49 10 -49 6 0 10 -20 10 -45 0 -25 5 -45 10 -45
6 0 10 -18 10 -40 0 -26 5 -43 14 -46 11 -4 13 -17 10 -44 -3 -28 0 -39 11
-44 11 -4 15 -20 15 -56 0 -27 5 -50 10 -50 6 0 10 -25 10 -55 0 -30 5 -55 10
-55 6 0 10 -7 10 -15 0 -17 -30 -55 -44 -55 -20 0 -46 34 -46 62 0 15 -4 28
-10 28 -5 0 -10 24 -10 54 0 39 -4 55 -15 60 -11 4 -14 15 -10 41 3 25 0 38
-10 42 -8 3 -15 18 -15 33 0 16 -4 32 -10 35 -5 3 -10 24 -10 46 0 21 -4 39
-10 39 -5 0 -10 18 -10 39 0 22 -4 43 -10 46 -5 3 -10 28 -10 56 0 27 -4 49
-10 49 -6 0 -10 28 -10 64 0 37 -5 66 -11 68 -6 2 -10 51 -10 137 0 81 4 138
10 144 6 6 11 33 11 59 0 26 5 48 10 48 6 0 10 25 10 55 0 30 5 55 10 55 6 0
10 13 10 29 0 17 5 33 10 36 6 3 10 24 10 46 0 21 5 39 10 39 6 0 10 14 10 30
0 19 6 33 16 37 10 4 14 13 10 28 -4 14 0 28 9 35 9 7 15 29 15 51 0 22 5 39
10 39 6 0 10 18 10 39 0 22 5 43 10 46 6 3 10 24 10 46 0 21 5 39 10 39 6 0
10 18 10 39 0 22 5 43 10 46 6 3 10 14 10 25 0 10 7 21 16 24 9 3 14 12 11 20
-13 34 22 34 53 1z m-1080 -65 c0 -5 -8 -10 -17 -10 -15 0 -16 2 -3 10 19 12
20 12 20 0z m-3623 -42 c-3 -8 -6 -5 -6 6 -1 11 2 17 5 13 3 -3 4 -12 1 -19z
m7490 0 c-3 -8 -6 -5 -6 6 -1 11 2 17 5 13 3 -3 4 -12 1 -19z m-3873 -14 c3
-9 11 -14 18 -12 7 3 22 -6 34 -19 17 -18 32 -23 74 -23 42 0 57 5 74 23 12
13 27 22 32 20 6 -2 17 3 24 12 18 22 72 19 93 -5 27 -32 22 -86 -10 -115 -16
-13 -39 -25 -52 -25 -15 0 -40 -19 -74 -55 -47 -51 -53 -55 -95 -55 -36 0 -52
6 -74 27 -15 15 -28 35 -28 45 0 11 -7 18 -20 18 -11 0 -20 5 -20 10 0 6 -9
10 -19 10 -11 0 -23 5 -26 10 -3 6 -13 10 -22 10 -21 0 -42 29 -43 57 0 38 49
83 91 83 25 0 39 -5 43 -16z m953 -16 c-3 -8 -6 -5 -6 6 -1 11 2 17 5 13 3 -3
4 -12 1 -19z m-1650 -20 c-3 -8 -6 -5 -6 6 -1 11 2 17 5 13 3 -3 4 -12 1 -19z
m1100 -40 c-2 -13 -4 -5 -4 17 -1 22 1 32 4 23 2 -10 2 -28 0 -40z m690 -10
c-2 -13 -4 -3 -4 22 0 25 2 35 4 23 2 -13 2 -33 0 -45z m2800 30 c-3 -7 -5 -2
-5 12 0 14 2 19 5 13 2 -7 2 -19 0 -25z m-4730 -35 c-3 -10 -5 -4 -5 12 0 17
2 24 5 18 2 -7 2 -21 0 -30z m1770 0 c-3 -10 -5 -4 -5 12 0 17 2 24 5 18 2 -7
2 -21 0 -30z m-4590 -5 c-3 -7 -5 -2 -5 12 0 14 2 19 5 13 2 -7 2 -19 0 -25z
m2980 -15 c-3 -10 -5 -4 -5 12 0 17 2 24 5 18 2 -7 2 -21 0 -30z m4590 -10
c-3 -10 -5 -4 -5 12 0 17 2 24 5 18 2 -7 2 -21 0 -30z m-7590 -35 c-3 -8 -6
-5 -6 6 -1 11 2 17 5 13 3 -3 4 -12 1 -19z m2860 -55 c-2 -16 -4 -3 -4 27 0
30 2 43 4 28 2 -16 2 -40 0 -55z m1890 15 c-2 -13 -4 -3 -4 22 0 25 2 35 4 23
2 -13 2 -33 0 -45z m-160 15 c-3 -10 -5 -4 -5 12 0 17 2 24 5 18 2 -7 2 -21 0
-30z m-2140 -115 c-2 -29 -3 -8 -3 47 0 55 1 79 3 53 2 -26 2 -71 0 -100z
m570 95 c-3 -10 -5 -4 -5 12 0 17 2 24 5 18 2 -7 2 -21 0 -30z m2140 -130 c-2
-32 -3 -8 -3 52 0 61 1 87 3 58 2 -29 2 -78 0 -110z m-2550 35 c-2 -24 -4 -7
-4 37 0 44 2 63 4 43 2 -21 2 -57 0 -80z m2390 -25 c-2 -27 -3 -5 -3 47 0 52
1 74 3 48 2 -27 2 -69 0 -95z m-1367 61 c0 -12 7 -14 29 -9 21 4 30 2 34 -9 4
-9 15 -16 24 -16 10 0 25 -9 33 -20 10 -14 26 -20 50 -20 24 0 40 6 50 20 8
11 22 20 31 20 9 0 21 6 27 13 7 8 29 12 59 10 26 -1 54 -2 61 -2 8 -1 12 -17
12 -48 0 -55 -21 -83 -62 -83 -15 0 -28 -4 -28 -10 0 -5 -7 -10 -16 -10 -18 0
-44 -24 -44 -41 0 -19 -31 -49 -52 -49 -10 0 -18 -4 -18 -10 0 -5 -9 -10 -20
-10 -11 0 -20 5 -20 10 0 6 -8 10 -17 10 -10 0 -41 25 -69 55 -36 38 -60 55
-77 55 -29 0 -77 45 -77 71 0 11 5 19 10 19 6 0 10 12 10 26 0 20 4 24 19 19
12 -3 21 0 25 10 7 20 26 19 26 -1z m260 6 c0 -5 -4 -10 -10 -10 -5 0 -10 5
-10 10 0 6 5 10 10 10 6 0 10 -4 10 -10z m837 -57 c-2 -16 -4 -5 -4 22 0 28 2
40 4 28 2 -13 2 -35 0 -50z m-1850 -45 c-2 -18 -4 -4 -4 32 0 36 2 50 4 33 2
-18 2 -48 0 -65z m958 62 c-3 -5 -19 -10 -35 -10 -16 0 -32 5 -35 10 -4 6 10
10 35 10 25 0 39 -4 35 -10z m242 -52 c-2 -13 -4 -3 -4 22 0 25 2 35 4 23 2
-13 2 -33 0 -45z m650 -70 c-2 -13 -4 -5 -4 17 -1 22 1 32 4 23 2 -10 2 -28 0
-40z m-2140 -111 c-2 -23 -3 -1 -3 48 0 50 1 68 3 42 2 -26 2 -67 0 -90z
m2430 0 c-2 -23 -3 -1 -3 48 0 50 1 68 3 42 2 -26 2 -67 0 -90z m-5110 66 c-3
-10 -5 -2 -5 17 0 19 2 27 5 18 2 -10 2 -26 0 -35z m2950 -15 c-2 -13 -4 -3
-4 22 0 25 2 35 4 23 2 -13 2 -33 0 -45z m-430 -30 c-2 -18 -4 -6 -4 27 0 33
2 48 4 33 2 -15 2 -42 0 -60z m1206 65 c-7 -2 -19 -2 -25 0 -7 3 -2 5 12 5 14
0 19 -2 13 -5z m364 1 c-3 -3 -12 -4 -19 -1 -8 3 -5 6 6 6 11 1 17 -2 13 -5z
m3700 -41 c-3 -10 -5 -2 -5 17 0 19 2 27 5 18 2 -10 2 -26 0 -35z m-2520 -70
c-2 -21 -4 -4 -4 37 0 41 2 58 4 38 2 -21 2 -55 0 -75z m-1237 93 c0 -3 -4 -8
-10 -11 -5 -3 -10 -1 -10 4 0 6 5 11 10 11 6 0 10 -2 10 -4z m807 -63 c-2 -16
-4 -5 -4 22 0 28 2 40 4 28 2 -13 2 -35 0 -50z m-250 35 c-3 -8 -6 -5 -6 6 -1
11 2 17 5 13 3 -3 4 -12 1 -19z m-1390 -20 c-3 -8 -6 -5 -6 6 -1 11 2 17 5 13
3 -3 4 -12 1 -19z m-3220 -60 c-2 -13 -4 -3 -4 22 0 25 2 35 4 23 2 -13 2 -33
0 -45z m2950 -20 c-2 -13 -4 -3 -4 22 0 25 2 35 4 23 2 -13 2 -33 0 -45z m813
42 c4 -7 15 -10 24 -7 9 4 16 2 16 -3 0 -10 57 -40 77 -40 7 0 13 -4 13 -10 0
-5 9 -10 20 -10 11 0 20 5 20 10 0 6 9 10 20 10 11 0 20 5 20 10 0 6 9 10 20
10 11 0 23 6 26 14 3 8 13 12 23 9 11 -3 21 2 24 11 8 20 33 21 41 1 3 -8 15
-15 26 -15 18 0 20 -6 20 -55 0 -48 -3 -55 -19 -55 -11 0 -23 -4 -26 -10 -3
-5 -15 -10 -26 -10 -10 0 -19 -4 -19 -10 0 -5 -7 -10 -16 -10 -18 0 -44 -24
-44 -41 0 -19 -31 -49 -52 -49 -10 0 -18 -4 -18 -10 0 -5 -9 -10 -20 -10 -11
0 -20 5 -20 10 0 6 -8 10 -18 10 -10 0 -41 25 -70 55 -38 39 -60 55 -79 55
-31 0 -73 45 -73 77 0 52 86 102 110 63z m827 -12 c-3 -7 -5 -2 -5 12 0 14 2
19 5 13 2 -7 2 -19 0 -25z m3240 -30 c-2 -13 -4 -3 -4 22 0 25 2 35 4 23 2
-13 2 -33 0 -45z m-4590 10 c-3 -7 -5 -2 -5 12 0 14 2 19 5 13 2 -7 2 -19 0
-25z m643 22 c0 -5 -4 -10 -9 -10 -6 0 -13 5 -16 10 -3 6 1 10 9 10 9 0 16 -4
16 -10z m85 0 c-3 -5 -10 -10 -16 -10 -5 0 -9 5 -9 10 0 6 7 10 16 10 8 0 12
-4 9 -10z m-45 -20 c0 -5 -4 -10 -10 -10 -5 0 -10 5 -10 10 0 6 5 10 10 10 6
0 10 -4 10 -10z m267 -52 c-2 -13 -4 -3 -4 22 0 25 2 35 4 23 2 -13 2 -33 0
-45z m690 0 c-2 -13 -4 -3 -4 22 0 25 2 35 4 23 2 -13 2 -33 0 -45z m-2200 -5
c-3 -10 -5 -2 -5 17 0 19 2 27 5 18 2 -10 2 -26 0 -35z m1890 -15 c-2 -13 -4
-3 -4 22 0 25 2 35 4 23 2 -13 2 -33 0 -45z m580 0 c-2 -13 -4 -3 -4 22 0 25
2 35 4 23 2 -13 2 -33 0 -45z m-5170 5 c-3 -10 -5 -4 -5 12 0 17 2 24 5 18 2
-7 2 -21 0 -30z m3280 -25 c-2 -13 -4 -5 -4 17 -1 22 1 32 4 23 2 -10 2 -28 0
-40z m4590 10 c-3 -7 -5 -2 -5 12 0 14 2 19 5 13 2 -7 2 -19 0 -25z m-4756
-48 c-9 -24 -10 -24 -10 7 -1 17 2 40 7 50 6 15 7 14 10 -7 2 -14 -2 -37 -7
-50z m1649 -22 c0 -64 -5 -60 -13 10 -4 32 -2 50 3 47 6 -4 10 -29 10 -57z
m-4783 -25 c-3 -10 -5 -4 -5 12 0 17 2 24 5 18 2 -7 2 -21 0 -30z m3160 -60
c-2 -21 -4 -6 -4 32 0 39 2 55 4 38 2 -18 2 -50 0 -70z m626 90 c-7 -2 -19 -2
-25 0 -7 3 -2 5 12 5 14 0 19 -2 13 -5z m964 -15 c-3 -8 -6 -5 -6 6 -1 11 2
17 5 13 3 -3 4 -12 1 -19z m-1430 -10 c-3 -8 -6 -5 -6 6 -1 11 2 17 5 13 3 -3
4 -12 1 -19z m773 8 c0 -3 -4 -8 -10 -11 -5 -3 -10 -1 -10 4 0 6 5 11 10 11 6
0 10 -2 10 -4z m3817 -38 c-3 -7 -5 -2 -5 12 0 14 2 19 5 13 2 -7 2 -19 0 -25z
m-3160 -10 c-3 -7 -5 -2 -5 12 0 14 2 19 5 13 2 -7 2 -19 0 -25z m-969 -15 c6
-9 16 -14 25 -10 10 4 28 -4 46 -18 16 -14 36 -25 45 -25 9 0 16 -4 16 -10 0
-5 18 -10 40 -10 22 0 40 5 40 10 0 6 9 10 19 10 11 0 28 11 39 25 11 13 22
22 26 18 3 -3 14 0 23 9 10 8 28 15 39 16 28 1 74 -50 74 -83 0 -31 -41 -75
-70 -75 -11 0 -20 -4 -20 -10 0 -5 -7 -10 -15 -10 -9 0 -40 -25 -69 -55 -45
-47 -58 -55 -89 -55 -20 0 -39 5 -42 10 -3 6 -15 10 -26 10 -11 0 -19 7 -19
18 0 28 -44 72 -73 72 -14 0 -29 5 -32 10 -3 6 -13 10 -21 10 -30 0 -44 27
-44 83 0 49 2 55 19 50 11 -3 21 2 24 11 8 21 34 20 45 -1z m147 -33 c3 -6 -1
-7 -9 -4 -18 7 -21 14 -7 14 6 0 13 -4 16 -10z m75 6 c0 -2 -7 -7 -16 -10 -8
-3 -12 -2 -9 4 6 10 25 14 25 6z m-343 -58 c-2 -13 -4 -5 -4 17 -1 22 1 32 4
23 2 -10 2 -28 0 -40z m590 10 c-3 -7 -5 -2 -5 12 0 14 2 19 5 13 2 -7 2 -19
0 -25z m-1090 -230 c-2 -24 -4 -7 -4 37 0 44 2 63 4 43 2 -21 2 -57 0 -80z
m618 102 c-3 -5 -12 -10 -18 -10 -7 0 -6 4 3 10 19 12 23 12 15 0z m-3828 -22
c-3 -8 -6 -5 -6 6 -1 11 2 17 5 13 3 -3 4 -12 1 -19z m2540 -95 c-2 -16 -4 -3
-4 27 0 30 2 43 4 28 2 -16 2 -40 0 -55z m1293 62 c7 -9 18 -14 25 -11 6 2 16
-4 23 -14 12 -19 66 -50 89 -50 7 0 13 -4 13 -10 0 -5 9 -10 20 -10 11 0 20 5
20 10 0 6 9 10 20 10 11 0 20 5 20 10 0 6 9 10 19 10 11 0 29 12 40 26 11 14
24 23 29 20 6 -3 15 1 22 9 20 24 54 18 86 -16 20 -21 28 -38 26 -56 -5 -34
-45 -73 -76 -73 -19 0 -45 -21 -98 -75 -61 -64 -77 -75 -105 -75 -46 0 -113
39 -113 66 0 17 -47 64 -65 64 -8 0 -17 5 -20 10 -3 6 -17 10 -31 10 -40 0
-54 22 -54 84 0 42 3 54 13 50 8 -3 20 2 27 11 7 8 23 15 35 15 12 0 28 -7 35
-15z m4177 -7 c-3 -8 -6 -5 -6 6 -1 11 2 17 5 13 3 -3 4 -12 1 -19z m-3907 -8
c0 -5 -7 -10 -15 -10 -8 0 -15 5 -15 10 0 6 7 10 15 10 8 0 15 -4 15 -10z
m697 -67 c-2 -16 -4 -3 -4 27 0 30 2 43 4 28 2 -16 2 -40 0 -55z m670 -15 c-2
-18 -4 -6 -4 27 0 33 2 48 4 33 2 -15 2 -42 0 -60z m-1455 40 c-9 -9 -15 -9
-24 0 -9 9 -7 12 12 12 19 0 21 -3 12 -12z m-1495 -470 c-1 -79 -3 -17 -3 137
0 154 2 218 3 143 2 -75 2 -201 0 -280z m670 350 c-2 -13 -4 -3 -4 22 0 25 2
35 4 23 2 -13 2 -33 0 -45z m-510 -110 c-2 -29 -3 -6 -3 52 0 58 1 81 3 53 2
-29 2 -77 0 -105z m270 120 c-3 -7 -5 -2 -5 12 0 14 2 19 5 13 2 -7 2 -19 0
-25z m400 -30 c-2 -13 -4 -3 -4 22 0 25 2 35 4 23 2 -13 2 -33 0 -45z m1470 0
c-2 -13 -4 -3 -4 22 0 25 2 35 4 23 2 -13 2 -33 0 -45z m510 -375 c-1 -82 -3
-15 -3 147 0 162 2 229 3 148 2 -82 2 -214 0 -295z m-670 355 c-2 -13 -4 -3
-4 22 0 25 2 35 4 23 2 -13 2 -33 0 -45z m830 -285 c-1 -65 -3 -12 -3 117 0
129 2 182 3 118 2 -65 2 -171 0 -235z m-1700 321 c-3 -3 -12 -4 -19 -1 -8 3
-5 6 6 6 11 1 17 -2 13 -5z m426 -1 c-7 -2 -19 -2 -25 0 -7 3 -2 5 12 5 14 0
19 -2 13 -5z m844 -25 c-3 -7 -5 -2 -5 12 0 14 2 19 5 13 2 -7 2 -19 0 -25z
m-5080 -200 c-1 -40 -3 -8 -3 72 0 80 2 112 3 73 2 -40 2 -106 0 -145z m2950
145 c-2 -16 -4 -5 -4 22 0 28 2 40 4 28 2 -13 2 -35 0 -50z m240 0 c-3 -10 -5
-4 -5 12 0 17 2 24 5 18 2 -7 2 -21 0 -30z m160 -30 c-3 -10 -5 -2 -5 17 0 19
2 27 5 18 2 -10 2 -26 0 -35z m1750 0 c-3 -10 -5 -2 -5 17 0 19 2 27 5 18 2
-10 2 -26 0 -35z m-240 5 c-3 -7 -5 -2 -5 12 0 14 2 19 5 13 2 -7 2 -19 0 -25z
m-1030 6 c3 -8 12 -13 20 -10 7 3 16 -1 19 -9 4 -8 14 -15 24 -15 9 0 25 -9
35 -20 10 -11 26 -20 37 -20 10 0 18 -4 18 -10 0 -5 18 -10 40 -10 22 0 40 5
40 10 0 6 9 10 19 10 11 0 28 10 38 23 10 12 26 21 36 19 10 -2 17 3 17 13 0
11 6 15 19 10 12 -3 21 0 25 10 7 19 50 19 66 0 7 -9 18 -14 23 -12 33 11 64
-77 32 -89 -9 -4 -14 -14 -13 -23 2 -11 -6 -17 -29 -19 -18 -2 -33 -7 -33 -13
0 -5 -13 -9 -28 -9 -16 0 -35 -8 -43 -17 -22 -28 -39 -61 -39 -78 0 -8 -4 -15
-10 -15 -5 0 -10 -8 -10 -18 0 -10 -9 -24 -20 -32 -11 -8 -20 -23 -20 -33 0
-9 -7 -20 -15 -23 -10 -4 -13 -13 -10 -25 5 -15 1 -19 -18 -19 -14 0 -27 -6
-30 -12 -6 -18 -67 40 -67 64 0 10 -4 18 -10 18 -5 0 -10 8 -10 18 0 10 -9 24
-20 32 -11 8 -20 22 -20 31 0 9 -7 20 -16 23 -8 3 -12 11 -9 17 12 18 -45 69
-77 69 -15 0 -28 5 -28 10 0 6 -8 10 -17 10 -55 0 -71 80 -25 128 31 34 98 44
109 16z m870 -31 c-3 -10 -5 -2 -5 17 0 19 2 27 5 18 2 -10 2 -26 0 -35z
m-1770 -40 c-3 -10 -5 -2 -5 17 0 19 2 27 5 18 2 -10 2 -26 0 -35z m160 0 c-3
-10 -5 -2 -5 17 0 19 2 27 5 18 2 -10 2 -26 0 -35z m878 37 c3 -5 -1 -10 -9
-10 -9 0 -16 5 -16 10 0 6 4 10 9 10 6 0 13 -4 16 -10z m130 0 c3 -5 -1 -10
-10 -10 -9 0 -13 5 -10 10 3 6 8 10 10 10 2 0 7 -4 10 -10z m-768 -42 c-3 -7
-5 -2 -5 12 0 14 2 19 5 13 2 -7 2 -19 0 -25z m723 22 c0 -5 -13 -10 -30 -10
-16 0 -30 5 -30 10 0 6 14 10 30 10 17 0 30 -4 30 -10z m1067 -37 c-3 -10 -5
-2 -5 17 0 19 2 27 5 18 2 -10 2 -26 0 -35z m2930 -70 c-2 -21 -4 -4 -4 37 0
41 2 58 4 38 2 -21 2 -55 0 -75z m-3090 50 c-3 -10 -5 -4 -5 12 0 17 2 24 5
18 2 -7 2 -21 0 -30z m-1890 -25 c-3 -8 -6 -5 -6 6 -1 11 2 17 5 13 3 -3 4
-12 1 -19z m1910 -50 c-3 -7 -5 -2 -5 12 0 14 2 19 5 13 2 -7 2 -19 0 -25z
m-680 6 c-3 -3 -12 -4 -19 -1 -8 3 -5 6 6 6 11 1 17 -2 13 -5z m-72 -24 c-3
-5 -10 -10 -16 -10 -5 0 -9 5 -9 10 0 6 7 10 16 10 8 0 12 -4 9 -10z m-385
-20 c0 -5 -5 -10 -11 -10 -5 0 -7 5 -4 10 3 6 8 10 11 10 2 0 4 -4 4 -10z
m-1143 -172 c-2 -24 -4 -5 -4 42 0 47 2 66 4 43 2 -24 2 -62 0 -85z m400 25
c-3 -10 -5 -4 -5 12 0 17 2 24 5 18 2 -7 2 -21 0 -30z m1850 -25 c-3 -7 -5 -2
-5 12 0 14 2 19 5 13 2 -7 2 -19 0 -25z m540 -15 c-3 -10 -5 -4 -5 12 0 17 2
24 5 18 2 -7 2 -21 0 -30z m-2250 -20 c-3 -10 -5 -4 -5 12 0 17 2 24 5 18 2
-7 2 -21 0 -30z m-420 -15 c-3 -7 -5 -2 -5 12 0 14 2 19 5 13 2 -7 2 -19 0
-25z m260 0 c-3 -7 -5 -2 -5 12 0 14 2 19 5 13 2 -7 2 -19 0 -25z m1730 0 c-3
-7 -5 -2 -5 12 0 14 2 19 5 13 2 -7 2 -19 0 -25z m-4790 -80 c-3 -8 -6 -5 -6
6 -1 11 2 17 5 13 3 -3 4 -12 1 -19z m8010 0 c-3 -8 -6 -5 -6 6 -1 11 2 17 5
13 3 -3 4 -12 1 -19z m-7960 -290 c-2 -13 -4 -5 -4 17 -1 22 1 32 4 23 2 -10
2 -28 0 -40z m7910 10 c-3 -7 -5 -2 -5 12 0 14 2 19 5 13 2 -7 2 -19 0 -25z
m-4879 -95 c-54 -2 -142 -2 -195 0 -54 1 -10 3 97 3 107 0 151 -2 98 -3z m370
0 c-10 -2 -26 -2 -35 0 -10 3 -2 5 17 5 19 0 27 -2 18 -5z m410 0 c-10 -2 -28
-2 -40 0 -13 2 -5 4 17 4 22 1 32 -1 23 -4z m560 0 c-65 -2 -171 -2 -235 0
-65 1 -12 3 117 3 129 0 182 -2 118 -3z m475 0 c-34 -2 -93 -2 -130 0 -37 2
-9 3 62 3 72 0 102 -1 68 -3z m3044 -15 c-3 -8 -6 -5 -6 6 -1 11 2 17 5 13 3
-3 4 -12 1 -19z m-7870 -25 c-3 -10 -5 -4 -5 12 0 17 2 24 5 18 2 -7 2 -21 0
-30z m2357 12 c4 -11 14 -13 37 -8 24 5 35 2 45 -11 7 -10 18 -16 25 -14 13 4
69 -48 69 -65 0 -18 -73 -87 -92 -87 -10 0 -18 4 -18 8 0 5 -18 18 -41 30 -43
23 -123 30 -134 12 -3 -5 -15 -10 -26 -10 -10 0 -19 -4 -19 -10 0 -5 -9 -10
-20 -10 -13 0 -20 -7 -20 -20 0 -11 -4 -20 -10 -20 -5 0 -10 -9 -10 -19 0 -11
-4 -23 -10 -26 -5 -3 -10 -28 -10 -56 0 -27 5 -49 10 -49 6 0 10 -9 10 -19 0
-11 5 -23 10 -26 6 -3 10 -15 10 -27 0 -15 5 -19 20 -15 13 3 20 0 20 -9 0 -8
9 -14 19 -14 11 0 23 -4 26 -10 3 -5 28 -10 56 -10 27 0 49 5 49 10 0 6 8 10
18 10 10 0 29 11 42 25 13 14 27 25 31 25 11 0 89 -81 89 -93 0 -17 -32 -47
-49 -47 -9 0 -23 -9 -31 -20 -10 -14 -26 -20 -50 -20 -20 0 -40 -4 -45 -9 -15
-15 -128 -17 -133 -3 -2 7 -17 12 -33 12 -16 0 -29 5 -29 10 0 6 -9 10 -19 10
-11 0 -23 5 -26 10 -3 6 -13 10 -21 10 -19 0 -63 50 -64 73 0 9 -7 17 -16 17
-10 0 -13 6 -9 19 3 12 0 21 -10 25 -9 3 -15 18 -15 36 0 16 -4 30 -10 30 -15
0 -12 96 3 109 8 6 12 23 9 40 -3 23 2 36 22 54 14 13 26 30 26 36 0 17 46 61
65 61 9 0 18 6 21 14 3 8 12 12 20 9 8 -3 17 3 20 12 5 12 14 15 35 11 18 -3
29 -1 33 9 8 21 122 21 130 0z m3282 0 c4 -10 14 -13 31 -9 17 5 28 1 38 -12
7 -11 16 -16 20 -12 4 4 17 -4 30 -18 12 -13 30 -24 39 -24 9 0 16 -7 16 -16
0 -9 10 -26 23 -38 13 -12 22 -27 19 -34 -2 -7 3 -15 12 -18 9 -4 16 -18 16
-34 0 -16 5 -32 10 -35 6 -3 10 -28 10 -56 0 -27 -4 -49 -10 -49 -5 0 -10 -14
-10 -30 0 -19 -6 -33 -16 -37 -8 -3 -13 -12 -10 -19 6 -17 -113 -134 -136
-134 -10 0 -18 -4 -18 -10 0 -5 -13 -10 -29 -10 -16 0 -31 -5 -33 -12 -5 -14
-118 -12 -132 3 -6 5 -27 9 -48 9 -21 0 -38 5 -38 10 0 6 -8 10 -17 10 -22 0
-133 111 -133 132 0 9 -6 18 -14 21 -10 4 -13 19 -11 51 3 35 -1 48 -13 56
-16 9 -16 11 0 20 12 8 15 21 13 56 -3 32 0 47 11 51 8 3 14 13 14 23 0 23
113 137 130 132 7 -3 17 3 22 13 7 11 17 15 33 11 15 -4 25 -1 29 9 4 11 23
15 76 15 53 0 72 -4 76 -15z m-2506 -65 l0 -60 -150 0 -150 0 0 -60 0 -60 130
0 130 0 0 -57 0 -58 -130 2 -130 2 0 -64 0 -65 150 0 150 0 0 -55 0 -55 -229
0 -230 0 -1 288 c0 159 3 291 6 295 4 4 108 7 231 7 l223 0 0 -60z m319 29
c17 -17 31 -35 31 -41 0 -5 20 -30 45 -55 25 -24 43 -48 41 -52 -3 -4 19 -32
49 -61 30 -30 55 -63 55 -73 0 -10 5 -17 11 -15 7 2 10 56 10 166 l-2 163 78
-3 78 -3 3 -292 2 -293 -66 0 c-64 0 -67 1 -100 38 -18 20 -34 42 -34 47 0 6
-25 35 -55 65 -30 30 -55 59 -55 64 0 10 -87 105 -97 106 -3 0 -5 -72 -4 -160
l2 -160 -70 0 -71 0 0 288 c0 159 3 292 7 295 3 4 30 7 59 7 45 0 57 -4 83
-31z m1044 -29 l-1 -55 -96 -3 -96 -3 0 -234 0 -235 -81 0 -80 0 3 235 3 235
-87 0 -88 0 0 60 0 60 262 -2 262 -3 -1 -55z m474 44 c3 -10 13 -14 25 -10 25
6 108 -68 108 -95 0 -11 5 -19 10 -19 6 0 10 -34 10 -81 0 -67 -3 -84 -19 -98
-10 -9 -20 -25 -22 -36 -3 -11 -11 -20 -20 -20 -15 0 -49 -27 -49 -39 0 -3 7
-6 16 -6 8 0 12 -5 8 -11 -3 -6 5 -23 18 -37 13 -15 30 -39 38 -54 7 -16 17
-28 22 -28 4 0 8 -9 8 -20 0 -18 -7 -20 -72 -20 -75 1 -108 14 -108 42 0 8 -9
23 -20 33 -11 10 -20 24 -20 32 0 30 -28 43 -89 43 l-61 0 0 -75 0 -75 -75 0
-75 0 0 295 0 295 180 0 c155 0 181 -2 187 -16z m-1700 -426 c-1 -79 -3 -15
-3 142 0 157 2 221 3 143 2 -79 2 -207 0 -285z m393 311 c0 -60 -3 -108 -7
-106 -8 5 -5 217 3 217 2 0 4 -50 4 -111z m277 49 c-2 -13 -4 -3 -4 22 0 25 2
35 4 23 2 -13 2 -33 0 -45z m3910 0 c-2 -13 -4 -3 -4 22 0 25 2 35 4 23 2 -13
2 -33 0 -45z m-7830 -5 c-3 -10 -5 -2 -5 17 0 19 2 27 5 18 2 -10 2 -26 0 -35z
m4550 -356 c-1 -73 -3 -10 -3 138 0 149 2 208 3 132 2 -76 2 -198 0 -270z
m-4530 266 c-3 -10 -5 -2 -5 17 0 19 2 27 5 18 2 -10 2 -26 0 -35z m7790 0
c-3 -10 -5 -2 -5 17 0 19 2 27 5 18 2 -10 2 -26 0 -35z m-4952 28 c3 -5 1 -12
-5 -16 -5 -3 -10 1 -10 9 0 18 6 21 15 7z m1240 -1 c3 -5 -1 -10 -10 -10 -9 0
-13 5 -10 10 3 6 8 10 10 10 2 0 7 -4 10 -10z m230 1 c3 -5 1 -12 -5 -16 -5
-3 -10 1 -10 9 0 18 6 21 15 7z m-2012 -8 c-7 -2 -21 -2 -30 0 -10 3 -4 5 12
5 17 0 24 -2 18 -5z m725 0 c-32 -2 -84 -2 -115 0 -32 2 -6 3 57 3 63 0 89 -1
58 -3z m1005 0 c-13 -2 -33 -2 -45 0 -13 2 -3 4 22 4 25 0 35 -2 23 -4z m385
0 c-15 -2 -42 -2 -60 0 -18 2 -6 4 27 4 33 0 48 -2 33 -4z m709 -100 c-2 -21
-4 -4 -4 37 0 41 2 58 4 38 2 -21 2 -55 0 -75z m-820 -225 c-1 -57 -3 -11 -3
102 0 113 2 159 3 103 2 -57 2 -149 0 -205z m-1462 282 c3 -5 1 -10 -4 -10 -6
0 -11 5 -11 10 0 6 2 10 4 10 3 0 8 -4 11 -10z m-928 -22 c-3 -8 -6 -5 -6 6
-1 11 2 17 5 13 3 -3 4 -12 1 -19z m1081 15 c-27 -2 -69 -2 -95 0 -27 2 -5 3
47 3 52 0 74 -1 48 -3z m2889 -15 c-3 -8 -6 -5 -6 6 -1 11 2 17 5 13 3 -3 4
-12 1 -19z m-3760 -100 c-2 -13 -4 -3 -4 22 0 25 2 35 4 23 2 -13 2 -33 0 -45z
m970 0 c-2 -13 -4 -3 -4 22 0 25 2 35 4 23 2 -13 2 -33 0 -45z m-1180 -70 c-3
-8 -6 -5 -6 6 -1 11 2 17 5 13 3 -3 4 -12 1 -19z m3970 0 c-3 -8 -6 -5 -6 6
-1 11 2 17 5 13 3 -3 4 -12 1 -19z m-3042 2 c3 -5 1 -10 -4 -10 -6 0 -11 5
-11 10 0 6 2 10 4 10 3 0 8 -4 11 -10z m602 -142 c-2 -24 -4 -7 -4 37 0 44 2
63 4 43 2 -21 2 -57 0 -80z m-602 92 c3 -5 1 -10 -4 -10 -6 0 -11 5 -11 10 0
6 2 10 4 10 3 0 8 -4 11 -10z m-552 -7 c-13 -2 -33 -2 -45 0 -13 2 -3 4 22 4
25 0 35 -2 23 -4z m745 0 c-32 -2 -86 -2 -120 0 -35 2 -9 3 57 3 66 0 94 -1
63 -3z m4669 -15 c-3 -8 -6 -5 -6 6 -1 11 2 17 5 13 3 -3 4 -12 1 -19z m-2937
-12 c0 -3 -4 -8 -10 -11 -5 -3 -10 -1 -10 4 0 6 5 11 10 11 6 0 10 -2 10 -4z
m70 -6 c0 -5 -2 -10 -4 -10 -3 0 -8 5 -11 10 -3 6 -1 10 4 10 6 0 11 -4 11
-10z m-4723 -52 c-3 -7 -5 -2 -5 12 0 14 2 19 5 13 2 -7 2 -19 0 -25z m3020
-20 c-2 -13 -4 -5 -4 17 -1 22 1 32 4 23 2 -10 2 -28 0 -40z m4550 30 c-3 -8
-6 -5 -6 6 -1 11 2 17 5 13 3 -3 4 -12 1 -19z m-7550 -70 c-3 -7 -5 -2 -5 12
0 14 2 19 5 13 2 -7 2 -19 0 -25z m7530 0 c-3 -7 -5 -2 -5 12 0 14 2 19 5 13
2 -7 2 -19 0 -25z m-5490 -34 c-3 -3 -12 -4 -19 -1 -8 3 -5 6 6 6 11 1 17 -2
13 -5z m190 0 c-3 -3 -12 -4 -19 -1 -8 3 -5 6 6 6 11 1 17 -2 13 -5z m616 -1
c-57 -2 -149 -2 -205 0 -57 1 -11 3 102 3 113 0 159 -2 103 -3z m380 0 c-13
-2 -33 -2 -45 0 -13 2 -3 4 22 4 25 0 35 -2 23 -4z m410 0 c-13 -2 -33 -2 -45
0 -13 2 -3 4 22 4 25 0 35 -2 23 -4z m450 0 c-13 -2 -35 -2 -50 0 -16 2 -5 4
22 4 28 0 40 -2 28 -4z m450 0 c-13 -2 -35 -2 -50 0 -16 2 -5 4 22 4 28 0 40
-2 28 -4z m365 0 c-16 -2 -40 -2 -55 0 -16 2 -3 4 27 4 30 0 43 -2 28 -4z
m415 0 c-7 -2 -19 -2 -25 0 -7 3 -2 5 12 5 14 0 19 -2 13 -5z m194 1 c-3 -3
-12 -4 -19 -1 -8 3 -5 6 6 6 11 1 17 -2 13 -5z m-5490 -26 c-3 -8 -6 -5 -6 6
-1 11 2 17 5 13 3 -3 4 -12 1 -19z m70 -150 c-3 -8 -6 -5 -6 6 -1 11 2 17 5
13 3 -3 4 -12 1 -19z m7330 -50 c-3 -7 -5 -2 -5 12 0 14 2 19 5 13 2 -7 2 -19
0 -25z m-4034 -95 c-56 -2 -151 -2 -210 0 -59 1 -13 3 102 3 116 0 164 -2 108
-3z m560 0 c-46 -2 -120 -2 -165 0 -46 1 -9 3 82 3 91 0 128 -2 83 -3z m570 0
c-13 -2 -35 -2 -50 0 -16 2 -5 4 22 4 28 0 40 -2 28 -4z m555 0 c-64 -2 -172
-2 -240 0 -68 1 -15 3 117 3 132 0 187 -2 123 -3z m-2325 -20 c4 -7 21 -13 37
-13 17 0 30 -4 30 -10 0 -5 8 -10 18 -10 15 -1 92 -63 92 -76 0 -9 -55 -53
-67 -54 -7 0 -17 -8 -22 -17 -8 -14 -12 -15 -19 -5 -11 16 -59 42 -78 42 -8 0
-14 5 -14 10 0 6 -22 10 -49 10 -28 0 -53 -4 -56 -10 -3 -5 -13 -10 -21 -10
-25 0 -84 -72 -84 -102 0 -15 -4 -28 -10 -28 -5 0 -10 -13 -10 -30 0 -16 5
-30 10 -30 6 0 10 -14 10 -30 0 -33 56 -100 84 -100 8 0 18 -4 21 -10 3 -5 28
-10 56 -10 27 0 49 5 49 10 0 6 11 10 25 10 14 0 25 5 25 10 0 6 7 10 16 10 9
0 22 7 29 16 10 14 17 12 57 -22 26 -22 47 -42 47 -46 2 -14 -74 -77 -91 -78
-10 0 -18 -4 -18 -10 0 -5 -18 -10 -40 -10 -26 0 -43 -5 -46 -14 -8 -20 -121
-17 -133 3 -5 8 -16 11 -25 8 -8 -3 -22 0 -30 8 -8 8 -21 15 -29 15 -17 0
-138 116 -129 124 3 3 -3 15 -12 25 -12 13 -17 32 -15 61 2 28 -1 44 -11 51
-13 8 -13 10 0 18 10 7 13 24 11 55 -2 35 1 48 14 52 9 4 14 12 11 20 -7 17
111 134 135 134 11 0 19 5 19 10 0 6 13 10 29 10 16 0 31 6 34 13 3 8 27 12
73 12 44 0 72 -4 77 -12z m1321 -23 c6 -6 21 -10 33 -10 26 0 143 -111 143
-135 0 -8 5 -15 10 -15 6 0 10 -16 10 -35 0 -19 5 -35 10 -35 6 0 10 -22 10
-49 0 -28 -4 -53 -10 -56 -5 -3 -10 -19 -10 -36 0 -16 -4 -29 -10 -29 -5 0
-10 -7 -10 -16 0 -19 -94 -114 -114 -114 -7 0 -17 -7 -20 -16 -3 -8 -11 -12
-16 -9 -6 4 -17 2 -23 -4 -8 -6 -87 -11 -203 -11 l-189 -2 -3 284 c-1 155 -1
287 2 293 5 13 377 8 390 -5z m1144 -45 l3 -55 -98 0 -98 0 0 -237 0 -237 -65
1 -65 1 -3 222 c-2 171 -5 225 -16 235 -9 9 -43 15 -96 17 l-83 3 1 48 c0 26
1 50 1 55 1 4 117 6 258 5 l258 -2 3 -56z m-1708 0 l0 -55 -150 0 -151 0 3
-61 3 -61 138 1 137 2 0 -43 c-1 -74 -9 -78 -154 -78 l-126 0 0 -60 0 -60 162
-2 162 -3 0 -53 0 -53 -238 0 -237 0 -2 290 -2 291 228 0 227 0 0 -55z m1060
-237 l0 -293 -75 0 c-41 0 -75 3 -75 8 0 9 0 565 0 572 0 3 34 5 75 5 l75 0 0
-292z m-923 -140 c-1 -79 -3 -15 -3 142 0 157 2 221 3 143 2 -79 2 -207 0
-285z m960 0 c-1 -79 -3 -15 -3 142 0 157 2 221 3 143 2 -79 2 -207 0 -285z
m650 360 c-2 -13 -4 -3 -4 22 0 25 2 35 4 23 2 -13 2 -33 0 -45z m-590 5 c-3
-10 -5 -2 -5 17 0 19 2 27 5 18 2 -10 2 -26 0 -35z m-1964 -80 c-13 -2 -33 -2
-45 0 -13 2 -3 4 22 4 25 0 35 -2 23 -4z m557 3 c0 -3 -4 -8 -10 -11 -5 -3
-10 -1 -10 4 0 6 5 11 10 11 6 0 10 -2 10 -4z m178 -3 c-32 -2 -84 -2 -115 0
-32 2 -6 3 57 3 63 0 89 -1 58 -3z m1420 -210 l-3 -218 -2 212 -3 212 -68 4
-67 3 73 2 72 2 -2 -217z m310 210 c-21 -2 -57 -2 -80 0 -24 2 -7 4 37 4 44 0
63 -2 43 -4z m-861 -70 c-3 -10 -5 -4 -5 12 0 17 2 24 5 18 2 -7 2 -21 0 -30z
m-1980 -35 c-2 -13 -4 -3 -4 22 0 25 2 35 4 23 2 -13 2 -33 0 -45z m933 58 c0
-3 -4 -8 -10 -11 -5 -3 -10 -1 -10 4 0 6 5 11 10 11 6 0 10 -2 10 -4z m153 -3
c-23 -2 -64 -2 -90 0 -26 2 -7 3 42 3 50 0 71 -1 48 -3z m-856 -35 c-3 -7 -5
-2 -5 12 0 14 2 19 5 13 2 -7 2 -19 0 -25z m1770 -80 c-2 -13 -4 -3 -4 22 0
25 2 35 4 23 2 -13 2 -33 0 -45z m-3987 32 c0 -5 -5 -10 -11 -10 -5 0 -7 5 -4
10 3 6 8 10 11 10 2 0 4 -4 4 -10z m2197 -22 c-3 -7 -5 -2 -5 12 0 14 2 19 5
13 2 -7 2 -19 0 -25z m4678 22 c3 -5 1 -10 -4 -10 -6 0 -11 5 -11 10 0 6 2 10
4 10 3 0 8 -4 11 -10z m-4888 -92 c-2 -13 -4 -3 -4 22 0 25 2 35 4 23 2 -13 2
-33 0 -45z m230 0 c-3 -7 -5 -2 -5 12 0 14 2 19 5 13 2 -7 2 -19 0 -25z m1750
-20 c-3 -7 -5 -2 -5 12 0 14 2 19 5 13 2 -7 2 -19 0 -25z m-1052 13 c3 -5 1
-12 -5 -16 -5 -3 -10 1 -10 9 0 18 6 21 15 7z m148 -8 c-24 -2 -62 -2 -85 0
-24 2 -5 4 42 4 47 0 66 -2 43 -4z m3727 -23 c0 -5 -5 -10 -11 -10 -5 0 -7 5
-4 10 3 6 8 10 11 10 2 0 4 -4 4 -10z m-3875 -20 c3 -5 1 -10 -4 -10 -6 0 -11
5 -11 10 0 6 2 10 4 10 3 0 8 -4 11 -10z m-552 -7 c-13 -2 -33 -2 -45 0 -13 2
-3 4 22 4 25 0 35 -2 23 -4z m760 0 c-34 -2 -93 -2 -130 0 -37 2 -9 3 62 3 72
0 102 -1 68 -3z m80 -370 c-13 -2 -33 -2 -45 0 -13 2 -3 4 22 4 25 0 35 -2 23
-4z m535 0 c-16 -2 -40 -2 -55 0 -16 2 -3 4 27 4 30 0 43 -2 28 -4z m-845 -20
c-7 -2 -19 -2 -25 0 -7 3 -2 5 12 5 14 0 19 -2 13 -5z m84 1 c-3 -3 -12 -4
-19 -1 -8 3 -5 6 6 6 11 1 17 -2 13 -5z m1031 -1 c-10 -2 -26 -2 -35 0 -10 3
-2 5 17 5 19 0 27 -2 18 -5z m205 0 c-7 -2 -19 -2 -25 0 -7 3 -2 5 12 5 14 0
19 -2 13 -5z m94 1 c-3 -3 -12 -4 -19 -1 -8 3 -5 6 6 6 11 1 17 -2 13 -5z
m-3897 -14 c0 -5 -5 -10 -11 -10 -5 0 -7 5 -4 10 3 6 8 10 11 10 2 0 4 -4 4
-10z m2525 -10 c3 -5 17 -10 31 -10 26 0 54 -20 54 -39 0 -14 -57 -14 -65 -1
-12 19 -78 11 -102 -12 -24 -23 -33 -91 -13 -103 6 -3 10 -15 10 -26 0 -15 5
-19 19 -14 11 3 21 0 24 -8 7 -19 57 -19 64 -1 6 16 63 19 63 3 0 -27 -30 -39
-97 -39 -57 1 -72 4 -95 25 -16 13 -28 31 -28 39 0 8 -4 18 -10 21 -5 3 -10
19 -10 36 0 16 5 29 10 29 6 0 10 8 10 18 0 27 52 72 83 72 15 0 27 5 27 10 0
6 4 10 9 10 6 0 13 -4 16 -10z m325 -15 c0 -24 -2 -25 -65 -25 l-65 0 0 -40 0
-40 65 0 c51 0 65 -3 65 -15 0 -12 -14 -15 -65 -15 l-65 0 0 -38 0 -38 72 0
c48 1 72 -3 75 -11 4 -10 -20 -13 -96 -13 l-101 0 0 116 c0 141 2 143 108 144
70 0 72 -1 72 -25z m549 8 c28 -23 17 -33 -34 -33 l-45 0 3 -105 c2 -103 2
-105 -20 -105 -22 0 -23 3 -23 105 l0 105 -45 0 c-48 0 -58 13 -27 36 27 21
167 18 191 -3z m141 7 c0 -5 17 -10 37 -10 40 0 73 -23 73 -52 0 -10 5 -18 10
-18 22 0 8 -35 -25 -66 l-35 -31 25 -19 c24 -18 32 -43 18 -58 -4 -3 -21 10
-38 30 -25 28 -40 37 -68 39 -36 2 -37 1 -37 -32 0 -29 -3 -33 -25 -33 l-25 0
0 115 c0 79 4 120 13 130 14 16 77 20 77 5z m320 0 c0 -5 9 -10 19 -10 11 0
23 -4 26 -10 3 -5 15 -10 26 -10 12 0 19 -7 19 -19 0 -11 5 -23 10 -26 6 -3
10 -28 10 -54 0 -40 -5 -53 -34 -84 -32 -35 -37 -37 -94 -37 -34 0 -64 5 -67
10 -3 6 -15 10 -26 10 -12 0 -19 7 -19 19 0 11 -4 23 -10 26 -14 9 -12 91 3
118 24 43 40 57 69 57 15 0 28 5 28 10 0 6 9 10 20 10 11 0 20 -4 20 -10z
m-961 -125 c-2 -120 -7 -107 -11 27 -2 54 0 92 4 85 4 -6 7 -57 7 -112z m96
88 c13 -16 25 -33 25 -39 0 -5 13 -23 29 -39 17 -15 31 -36 33 -47 2 -10 8
-17 13 -16 6 2 9 36 6 86 l-3 82 26 0 26 0 0 -120 c0 -106 -2 -120 -17 -120
-19 0 -93 67 -93 85 -1 13 -46 65 -57 65 -5 0 -7 -34 -5 -75 l4 -75 -26 0 -26
0 0 120 c0 114 1 120 20 120 12 0 32 -12 45 -27z m71 -51 c-11 -10 -15 4 -8
28 l7 25 3 -23 c2 -13 1 -26 -2 -30z m634 33 c0 -8 -4 -15 -10 -15 -5 0 -10 7
-10 15 0 8 5 15 10 15 6 0 10 -7 10 -15z m-1063 -112 c-2 -21 -4 -4 -4 37 0
41 2 58 4 38 2 -21 2 -55 0 -75z m192 86 c-20 -12 -79 -8 -79 5 0 7 17 10 46
7 31 -2 42 -6 33 -12z m421 11 c0 -5 -5 -10 -11 -10 -5 0 -7 5 -4 10 3 6 8 10
11 10 2 0 4 -4 4 -10z m120 0 c0 -5 -5 -10 -11 -10 -5 0 -7 5 -4 10 3 6 8 10
11 10 2 0 4 -4 4 -10z m47 -127 c-2 -27 -3 -5 -3 47 0 52 1 74 3 48 2 -27 2
-69 0 -95z m-920 121 c-3 -3 -12 -4 -19 -1 -8 3 -5 6 6 6 11 1 17 -2 13 -5z
m-40 -61 c-3 -10 -5 -2 -5 17 0 19 2 27 5 18 2 -10 2 -26 0 -35z m130 41 c-3
-3 -12 -4 -19 -1 -8 3 -5 6 6 6 11 1 17 -2 13 -5z m-250 -46 c-3 -7 -5 -2 -5
12 0 14 2 19 5 13 2 -7 2 -19 0 -25z m1670 -5 c-3 -10 -5 -4 -5 12 0 17 2 24
5 18 2 -7 2 -21 0 -30z m-327 -13 c0 -5 -4 -10 -10 -10 -5 0 -10 5 -10 10 0 6
5 10 10 10 6 0 10 -4 10 -10z m-832 -25 c-2 -1 -24 -5 -50 -7 -32 -4 -48 -2
-48 6 0 7 18 10 51 7 28 -1 49 -4 47 -6z m169 -42 c-3 -10 -5 -4 -5 12 0 17 2
24 5 18 2 -7 2 -21 0 -30z m674 0 c-8 -15 -10 -15 -11 -2 0 17 10 32 18 25 2
-3 -1 -13 -7 -23z m-151 1 c0 -8 -5 -12 -10 -9 -6 4 -8 11 -5 16 9 14 15 11
15 -7z m-997 -61 c-13 -2 -35 -2 -50 0 -16 2 -5 4 22 4 28 0 40 -2 28 -4z
m275 0 c-21 -2 -57 -2 -80 0 -24 2 -7 4 37 4 44 0 63 -2 43 -4z m1045 0 c-13
-2 -33 -2 -45 0 -13 2 -3 4 22 4 25 0 35 -2 23 -4z m-1670 -100 c-7 -2 -21 -2
-30 0 -10 3 -4 5 12 5 17 0 24 -2 18 -5z m640 0 c-7 -2 -19 -2 -25 0 -7 3 -2
5 12 5 14 0 19 -2 13 -5z m100 0 c-7 -2 -19 -2 -25 0 -7 3 -2 5 12 5 14 0 19
-2 13 -5z m500 0 c-7 -2 -19 -2 -25 0 -7 3 -2 5 12 5 14 0 19 -2 13 -5z m84 1
c-3 -3 -12 -4 -19 -1 -8 3 -5 6 6 6 11 1 17 -2 13 -5z m280 0 c-3 -3 -12 -4
-19 -1 -8 3 -5 6 6 6 11 1 17 -2 13 -5z m-1662 -24 c3 -5 22 -10 41 -10 27 0
44 -9 74 -39 34 -34 40 -46 40 -82 0 -36 -6 -49 -37 -81 l-37 -38 -86 0 -85 0
2 115 c1 79 5 119 15 129 15 17 64 21 73 6z m755 1 c0 -6 15 -11 33 -13 24 -2
33 -8 35 -25 3 -17 -2 -23 -17 -23 -11 0 -23 5 -26 10 -3 6 -23 10 -43 10 -53
0 -92 -40 -92 -95 0 -44 28 -84 49 -70 6 3 14 0 17 -9 6 -15 35 -16 67 -2 12
6 17 20 17 52 0 32 4 44 15 44 23 0 21 -98 -2 -116 -21 -16 -143 -19 -143 -4
0 6 -9 10 -20 10 -13 0 -20 7 -20 20 0 11 -4 20 -10 20 -19 0 -11 97 12 139
19 35 26 41 55 41 18 0 33 5 33 10 0 6 9 10 20 10 11 0 20 -4 20 -9z m585 -1
c3 -5 17 -10 31 -10 24 0 88 -53 77 -64 -3 -3 0 -13 7 -21 19 -23 21 -62 4
-69 -8 -3 -14 -12 -14 -21 0 -9 -12 -27 -26 -42 -22 -22 -33 -25 -90 -24 -52
1 -72 5 -94 23 -16 13 -29 31 -29 40 -1 9 -5 20 -11 23 -5 3 -10 19 -10 36 0
16 5 29 10 29 6 0 10 8 10 18 0 27 52 72 83 72 15 0 27 5 27 10 0 6 4 10 9 10
6 0 13 -4 16 -10z m280 0 c3 -5 19 -10 36 -10 24 0 29 -4 29 -25 0 -25 -14
-33 -25 -15 -3 6 -28 10 -56 10 -48 0 -49 -1 -49 -30 0 -23 5 -30 19 -30 11 0
23 -4 26 -10 3 -5 18 -10 32 -10 26 0 73 -43 73 -68 0 -7 -11 -24 -25 -37 -20
-21 -34 -25 -82 -25 -59 1 -101 19 -88 39 8 15 28 14 43 -1 18 -18 74 -19 95
-1 23 21 22 43 -2 43 -11 0 -23 5 -26 10 -3 6 -16 10 -28 10 -30 1 -87 54 -87
83 0 25 31 57 55 57 8 0 15 5 15 10 0 6 9 10 19 10 11 0 23 -4 26 -10z m565
-15 c0 -24 -2 -25 -65 -25 l-65 0 0 -40 0 -40 65 0 c51 0 65 -3 65 -15 0 -12
-14 -15 -67 -15 l-68 0 1 -37 1 -38 74 -1 c47 -1 74 -6 74 -13 0 -6 -3 -11 -7
-11 -5 0 -48 0 -98 0 l-90 0 0 116 c0 141 2 143 108 144 70 0 72 -1 72 -25z
m-1920 -115 l0 -120 -25 0 -25 0 0 120 0 120 25 0 25 0 0 -120z m196 106 c8
-8 14 -21 14 -30 0 -8 5 -18 10 -21 6 -3 10 -14 10 -25 0 -10 7 -20 15 -24 8
-3 12 -12 9 -19 -3 -8 2 -17 10 -20 9 -4 16 -16 16 -27 0 -11 5 -20 10 -20 11
0 14 -33 4 -42 -11 -11 -44 5 -44 21 0 30 -23 41 -87 41 -52 0 -63 -3 -63 -16
0 -16 -36 -54 -51 -54 -14 0 -22 22 -10 30 15 9 41 57 41 76 0 8 5 14 10 14 6
0 10 9 10 20 0 11 5 20 10 20 6 0 10 9 10 19 0 11 5 23 10 26 6 3 10 15 10 26
0 23 34 26 56 5z m523 -31 c23 -25 46 -45 52 -45 6 0 8 -7 5 -16 -6 -15 14
-44 31 -44 5 0 7 34 5 75 l-4 75 26 0 26 0 0 -120 c0 -115 -1 -120 -21 -120
-23 0 -49 22 -49 42 -1 7 -19 31 -40 53 -22 22 -40 48 -40 58 0 9 -6 17 -13
17 -11 0 -13 -16 -9 -74 5 -89 1 -106 -27 -99 -20 5 -21 13 -21 124 0 110 1
119 19 119 10 0 37 -20 60 -45z m831 -74 c0 -109 -2 -119 -19 -124 -11 -3 -22
-2 -25 1 -3 3 -6 59 -6 124 l0 118 25 0 25 0 0 -119z m-941 -20 c0 -51 -3 -90
-7 -86 -4 3 -7 53 -7 110 0 57 3 96 6 87 4 -9 7 -59 8 -111z m292 56 c-8 -8
-11 2 -10 34 l1 44 10 -34 c6 -23 6 -37 -1 -44z m566 -4 c-2 -16 -4 -3 -4 27
0 30 2 43 4 28 2 -16 2 -40 0 -55z m120 -90 c-2 -32 -3 -8 -3 52 0 61 1 87 3
58 2 -29 2 -78 0 -110z m120 0 c-2 -32 -3 -8 -3 52 0 61 1 87 3 58 2 -29 2
-78 0 -110z m-927 132 c0 -8 -4 -15 -10 -15 -5 0 -7 7 -4 15 4 8 8 15 10 15 2
0 4 -7 4 -15z m-2685 -5 c3 -5 1 -10 -4 -10 -6 0 -11 5 -11 10 0 6 2 10 4 10
3 0 8 -4 11 -10z m1822 -5 c0 -8 -4 -12 -9 -9 -4 3 -8 9 -8 15 0 5 4 9 8 9 5
0 9 -7 9 -15z m3243 5 c0 -5 -5 -10 -11 -10 -5 0 -7 5 -4 10 3 6 8 10 11 10 2
0 4 -4 4 -10z m-1770 -21 c0 -13 -34 -11 -54 4 -16 12 -14 13 18 9 20 -2 36
-8 36 -13z m-893 5 c-3 -3 -12 -4 -19 -1 -8 3 -5 6 6 6 11 1 17 -2 13 -5z
m1408 -4 c-7 -12 -84 -10 -91 2 -3 4 18 8 46 8 31 0 49 -4 45 -10z m-1599 -50
c0 -22 -4 -36 -9 -31 -8 8 -1 71 8 71 1 0 2 -18 1 -40z m124 30 c0 -5 -2 -10
-4 -10 -3 0 -8 5 -11 10 -3 6 -1 10 4 10 6 0 11 -4 11 -10z m-387 -50 c3 -11
1 -23 -4 -26 -5 -3 -9 6 -9 20 0 31 6 34 13 6z m457 -15 c0 -27 -4 -35 -17
-34 -11 0 -13 3 -5 6 6 2 12 18 12 34 0 16 2 29 5 29 3 0 5 -16 5 -35z m967
13 c-3 -8 -6 -5 -6 6 -1 11 2 17 5 13 3 -3 4 -12 1 -19z m-1037 -18 c0 -5 -2
-10 -4 -10 -3 0 -8 5 -11 10 -3 6 -1 10 4 10 6 0 11 -4 11 -10z m299 -4 c7 -8
8 -17 3 -20 -6 -3 -12 3 -15 14 -6 24 -4 25 12 6z m173 -37 l-10 -34 -1 45
c-1 31 2 41 10 33 7 -7 7 -21 1 -44z m968 20 c-45 -7 -64 -4 -56 9 2 4 26 5
53 3 l48 -5 -45 -7z m-510 1 c10 -6 5 -9 -18 -8 -18 1 -35 5 -38 10 -7 11 37
10 56 -2z m-1440 -10 c0 -5 -5 -10 -11 -10 -5 0 -7 5 -4 10 3 6 8 10 11 10 2
0 4 -4 4 -10z m807 -32 c-3 -8 -6 -5 -6 6 -1 11 2 17 5 13 3 -3 4 -12 1 -19z
m740 0 c-3 -8 -6 -5 -6 6 -1 11 2 17 5 13 3 -3 4 -12 1 -19z m-1247 4 c0 -4
-17 -6 -37 -4 -59 5 -63 10 -10 11 26 1 47 -3 47 -7z m-462 -59 c-16 -2 -40
-2 -55 0 -16 2 -3 4 27 4 30 0 43 -2 28 -4z m740 0 c-10 -2 -28 -2 -40 0 -13
2 -5 4 17 4 22 1 32 -1 23 -4z m590 0 c-10 -2 -28 -2 -40 0 -13 2 -5 4 17 4
22 1 32 -1 23 -4z m265 0 c-13 -2 -33 -2 -45 0 -13 2 -3 4 22 4 25 0 35 -2 23
-4z m524 0 c-20 -2 -52 -2 -70 0 -17 2 0 4 38 4 39 0 53 -2 32 -4z m-3392 -53
c3 -5 1 -10 -4 -10 -6 0 -11 5 -11 10 0 6 2 10 4 10 3 0 8 -4 11 -10z m4285 0
c0 -5 -5 -10 -11 -10 -5 0 -7 5 -4 10 3 6 8 10 11 10 2 0 4 -4 4 -10z m-2177
-47 c-7 -2 -21 -2 -30 0 -10 3 -4 5 12 5 17 0 24 -2 18 -5z m544 1 c-3 -3 -12
-4 -19 -1 -8 3 -5 6 6 6 11 1 17 -2 13 -5z m-1004 -28 c30 -23 20 -36 -28 -36
l-44 0 -3 -107 c-3 -100 -4 -108 -23 -108 -19 0 -20 7 -20 108 l0 107 -41 0
c-50 0 -59 8 -36 31 22 23 167 26 195 5z m236 -3 c31 -26 16 -33 -63 -33 l-74
0 0 -40 -1 -40 70 0 c52 0 70 -3 67 -12 -3 -8 -29 -14 -71 -16 l-66 -3 2 -37
2 -37 75 -1 c56 -1 75 -5 75 -15 0 -17 -54 -22 -140 -14 l-60 6 1 114 c2 79 6
118 15 129 20 22 142 22 168 -1z m166 7 c3 -5 22 -10 40 -10 36 0 78 -27 69
-42 -3 -5 2 -18 12 -29 17 -19 16 -21 -21 -59 l-38 -39 26 -21 c15 -12 27 -28
27 -35 0 -29 -21 -25 -51 9 -26 30 -38 36 -70 36 -37 0 -39 -2 -39 -30 0 -24
-4 -30 -22 -30 -23 0 -23 2 -22 114 2 80 6 119 15 130 16 17 65 21 74 6z m560
0 c3 -5 17 -10 31 -10 52 0 111 -98 69 -114 -9 -3 -15 -14 -13 -23 2 -12 -4
-19 -19 -21 -13 -2 -23 -8 -23 -13 0 -6 -22 -9 -52 -8 l-53 3 0 -35 c0 -24 -5
-34 -15 -34 -12 0 -15 16 -17 80 -1 44 0 104 3 133 l5 52 39 0 c21 0 42 -4 45
-10z m-253 -27 c10 -9 18 -24 18 -35 0 -10 5 -18 10 -18 6 0 10 -9 10 -20 0
-11 5 -20 10 -20 6 0 10 -9 10 -19 0 -10 7 -22 16 -25 8 -3 12 -11 8 -17 -4
-7 1 -18 10 -25 10 -7 16 -21 14 -31 -4 -24 -42 -24 -46 1 -7 35 -28 46 -91
46 -47 0 -61 -3 -61 -15 0 -19 -31 -55 -47 -55 -21 0 -26 21 -7 34 9 7 14 18
11 23 -4 6 0 14 9 17 9 4 14 13 10 21 -3 9 1 18 9 21 8 4 15 15 15 25 0 10 5
19 10 19 6 0 10 9 10 19 0 11 5 23 10 26 6 3 10 15 10 26 0 24 27 25 52 2z
m468 -87 c0 -57 3 -111 6 -120 5 -12 0 -16 -22 -16 l-29 0 2 117 c1 65 2 119
3 121 0 1 9 2 20 2 19 0 20 -7 20 -104z m202 87 c10 -9 18 -24 18 -35 0 -10 5
-18 10 -18 6 0 10 -9 10 -20 0 -11 5 -20 10 -20 6 0 10 -9 10 -19 0 -10 7 -22
16 -25 8 -3 12 -11 9 -17 -4 -5 1 -19 10 -29 10 -11 15 -26 12 -34 -8 -20 -41
-13 -46 9 -6 34 -28 45 -90 45 -47 0 -61 -3 -61 -15 0 -19 -31 -55 -47 -55
-20 0 -27 22 -10 32 9 5 14 15 11 22 -3 7 2 16 11 20 10 4 15 12 11 21 -3 9 1
18 9 21 8 4 15 15 15 25 0 10 5 19 10 19 6 0 10 9 10 19 0 11 5 23 10 26 6 3
10 15 10 26 0 24 27 25 52 2z m-535 -100 c-2 -21 -4 -4 -4 37 0 41 2 58 4 38
2 -21 2 -55 0 -75z m-872 58 c3 -5 1 -12 -5 -16 -5 -3 -10 1 -10 9 0 18 6 21
15 7z m1132 -28 c-3 -10 -5 -4 -5 12 0 17 2 24 5 18 2 -7 2 -21 0 -30z m-1250
21 c-3 -3 -12 -4 -19 -1 -8 3 -5 6 6 6 11 1 17 -2 13 -5z m373 -4 c-20 -13
-100 -13 -100 0 0 6 26 10 58 10 40 0 53 -3 42 -10z m354 -25 c3 -8 1 -15 -4
-15 -6 0 -10 7 -10 15 0 8 2 15 4 15 2 0 6 -7 10 -15z m-617 -102 c-2 -21 -4
-4 -4 37 0 41 2 58 4 38 2 -21 2 -55 0 -75z m1130 45 c-3 -7 -5 -2 -5 12 0 14
2 19 5 13 2 -7 2 -19 0 -25z m127 -22 c-3 -15 -8 -25 -11 -23 -2 3 -1 17 3 31
3 15 8 25 11 23 2 -3 1 -17 -3 -31z m-1027 4 c49 0 39 -6 -19 -12 -38 -4 -48
-2 -48 9 0 10 6 13 16 9 9 -3 32 -6 51 -6z m652 -40 l-1 -25 -8 25 c-4 14 -8
32 -9 40 -1 13 0 13 9 0 5 -8 9 -26 9 -40z m1238 4 c-3 -3 -12 -4 -19 -1 -8 3
-5 6 6 6 11 1 17 -2 13 -5z m-1677 -8 c0 -3 -4 -8 -10 -11 -5 -3 -10 -1 -10 4
0 6 5 11 10 11 6 0 10 -2 10 -4z m288 -3 c-10 -2 -26 -2 -35 0 -10 3 -2 5 17
5 19 0 27 -2 18 -5z m42 -3 c0 -5 -2 -10 -4 -10 -3 0 -8 5 -11 10 -3 6 -1 10
4 10 6 0 11 -4 11 -10z m210 6 c0 -3 -4 -8 -10 -11 -5 -3 -10 -1 -10 4 0 6 5
11 10 11 6 0 10 -2 10 -4z m418 -3 c-10 -2 -26 -2 -35 0 -10 3 -2 5 17 5 19 0
27 -2 18 -5z m42 -3 c0 -5 -2 -10 -4 -10 -3 0 -8 5 -11 10 -3 6 -1 10 4 10 6
0 11 -4 11 -10z m-2453 -6 c-3 -3 -12 -4 -19 -1 -8 3 -5 6 6 6 11 1 17 -2 13
-5z m1241 -51 c-21 -2 -55 -2 -75 0 -21 2 -4 4 37 4 41 0 58 -2 38 -4z m-941
-59 c-3 -3 -12 -4 -19 -1 -8 3 -5 6 6 6 11 1 17 -2 13 -5z m2490 0 c-3 -3 -12
-4 -19 -1 -8 3 -5 6 6 6 11 1 17 -2 13 -5z m-2424 -21 c-7 -2 -19 -2 -25 0 -7
3 -2 5 12 5 14 0 19 -2 13 -5z m2360 0 c-7 -2 -19 -2 -25 0 -7 3 -2 5 12 5 14
0 19 -2 13 -5z m-66 -19 c-3 -3 -12 -4 -19 -1 -8 3 -5 6 6 6 11 1 17 -2 13 -5z
m-1880 -90 c-3 -3 -12 -4 -19 -1 -8 3 -5 6 6 6 11 1 17 -2 13 -5z m1490 0 c-3
-3 -12 -4 -19 -1 -8 3 -5 6 6 6 11 1 17 -2 13 -5z m40 0 c-3 -3 -12 -4 -19 -1
-8 3 -5 6 6 6 11 1 17 -2 13 -5z m-1329 -21 c-21 -2 -55 -2 -75 0 -21 2 -4 4
37 4 41 0 58 -2 38 -4z m1180 0 c-21 -2 -57 -2 -80 0 -24 2 -7 4 37 4 44 0 63
-2 43 -4z m-970 -20 c-26 -2 -71 -2 -100 0 -29 2 -8 3 47 3 55 0 79 -1 53 -3z
m785 0 c-29 -2 -78 -2 -110 0 -32 2 -8 3 52 3 61 0 87 -1 58 -3z m-331 -20
c-73 -2 -190 -2 -260 0 -70 1 -10 3 133 3 143 0 200 -2 127 -3z"/>
<path d="M6964 4236 c-47 -26 -94 -76 -94 -100 0 -14 -4 -28 -10 -31 -5 -3
-10 -19 -10 -36 0 -16 5 -29 10 -29 6 0 10 -13 10 -28 0 -32 64 -102 93 -102
9 0 17 -4 17 -10 0 -14 86 -12 113 2 39 23 97 82 97 100 0 10 5 18 10 18 6 0
10 22 10 49 0 28 -4 53 -10 56 -5 3 -10 13 -10 21 0 19 -65 84 -84 84 -8 0
-18 5 -21 10 -8 14 -95 11 -121 -4z m69 -23 c-7 -2 -21 -2 -30 0 -10 3 -4 5
12 5 17 0 24 -2 18 -5z m-126 -85 c-3 -7 -5 -2 -5 12 0 14 2 19 5 13 2 -7 2
-19 0 -25z m270 -80 c-2 -13 -4 -3 -4 22 0 25 2 35 4 23 2 -13 2 -33 0 -45z
m-290 10 c-3 -7 -5 -2 -5 12 0 14 2 19 5 13 2 -7 2 -19 0 -25z m20 -60 c-3 -7
-5 -2 -5 12 0 14 2 19 5 13 2 -7 2 -19 0 -25z m146 -75 c-13 -2 -33 -2 -45 0
-13 2 -3 4 22 4 25 0 35 -2 23 -4z"/>
<path d="M6220 4155 l0 -95 80 0 c75 0 83 2 108 27 46 46 33 143 -20 143 -10
0 -18 5 -18 10 0 6 -32 10 -75 10 l-75 0 0 -95z m45 65 c3 -5 1 -10 -4 -10 -6
0 -11 5 -11 10 0 6 2 10 4 10 3 0 8 -4 11 -10z m83 -7 c-10 -2 -28 -2 -40 0
-13 2 -5 4 17 4 22 1 32 -1 23 -4z m62 -17 c0 -3 -4 -8 -10 -11 -5 -3 -10 -1
-10 4 0 6 5 11 10 11 6 0 10 -2 10 -4z m-140 -96 c0 -5 -4 -10 -10 -10 -5 0
-10 5 -10 10 0 6 5 10 10 10 6 0 10 -4 10 -10z m110 0 c0 -5 -5 -10 -11 -10
-5 0 -7 5 -4 10 3 6 8 10 11 10 2 0 4 -4 4 -10z"/>
<path d="M5465 3100 l0 -180 62 0 c34 0 65 5 68 10 3 6 22 10 41 10 26 0 43 8
69 35 19 19 35 41 35 50 0 9 6 18 13 20 17 7 18 103 0 109 -7 3 -13 12 -13 21
0 25 -66 85 -94 85 -14 0 -28 5 -31 10 -3 6 -39 10 -78 10 l-72 0 0 -180z
m134 146 c-7 -8 -98 -10 -105 -3 -4 4 19 7 51 7 32 0 56 -2 54 -4z m64 -23
c-7 -2 -19 -2 -25 0 -7 3 -2 5 12 5 14 0 19 -2 13 -5z m-5 -250 c-10 -2 -26
-2 -35 0 -10 3 -2 5 17 5 19 0 27 -2 18 -5z m-143 -13 c3 -5 -1 -10 -10 -10
-9 0 -13 5 -10 10 3 6 8 10 10 10 2 0 7 -4 10 -10z m58 -7 c-7 -2 -21 -2 -30
0 -10 3 -4 5 12 5 17 0 24 -2 18 -5z"/>
<path d="M5880 2450 l0 -50 48 0 c54 0 72 12 72 50 0 38 -18 50 -72 50 l-48 0
0 -50z m40 20 c0 -5 -5 -10 -11 -10 -5 0 -7 5 -4 10 3 6 8 10 11 10 2 0 4 -4
4 -10z m50 -20 c0 -12 -7 -20 -17 -20 -14 0 -15 2 -4 9 7 5 10 14 7 20 -4 6
-2 11 3 11 6 0 11 -9 11 -20z m-45 -10 c3 -5 -1 -10 -10 -10 -9 0 -13 5 -10
10 3 6 8 10 10 10 2 0 7 -4 10 -10z"/>
<path d="M6159 2473 c-34 -38 -32 -93 5 -132 28 -29 54 -33 79 -13 7 7 17 9
21 5 3 -4 15 3 26 15 49 52 2 152 -70 152 -27 0 -43 -7 -61 -27z m58 -9 c-3
-3 -12 -4 -19 -1 -8 3 -5 6 6 6 11 1 17 -2 13 -5z m63 -18 c0 -3 -4 -8 -10
-11 -5 -3 -10 -1 -10 4 0 6 5 11 10 11 6 0 10 -2 10 -4z m-103 -78 c-3 -8 -6
-5 -6 6 -1 11 2 17 5 13 3 -3 4 -12 1 -19z m103 8 c0 -3 -4 -8 -10 -11 -5 -3
-10 -1 -10 4 0 6 5 11 10 11 6 0 10 -2 10 -4z m-60 -32 c0 -2 -7 -4 -15 -4 -8
0 -15 4 -15 10 0 5 7 7 15 4 8 -4 15 -8 15 -10z"/>
<path d="M4472 1998 l3 -92 38 -3 c26 -1 40 3 44 12 3 8 9 12 15 9 21 -13 48
28 48 73 0 63 -32 93 -100 93 l-51 0 3 -92z m43 62 c3 -5 1 -10 -4 -10 -6 0
-11 5 -11 10 0 6 2 10 4 10 3 0 8 -4 11 -10z m75 -66 c0 -25 -4 -43 -8 -40 -7
4 -4 86 4 86 2 0 4 -21 4 -46z m-70 -54 c0 -5 -4 -10 -10 -10 -5 0 -10 5 -10
10 0 6 5 10 10 10 6 0 10 -4 10 -10z"/>
<path d="M5772 2067 c-23 -24 -31 -90 -12 -102 6 -3 10 -15 10 -27 0 -15 5
-19 19 -15 11 3 22 -1 25 -9 6 -15 53 -14 64 1 4 6 14 10 22 10 8 0 15 9 15
19 0 11 6 21 13 24 14 4 17 62 2 62 -5 0 -10 9 -10 20 0 13 -7 20 -19 20 -11
0 -23 5 -26 10 -12 20 -80 11 -103 -13z m55 -13 c-3 -3 -12 -4 -19 -1 -8 3 -5
6 6 6 11 1 17 -2 13 -5z m-40 -61 c-3 -10 -5 -2 -5 17 0 19 2 27 5 18 2 -10 2
-26 0 -35z m120 -5 c-3 -8 -6 -5 -6 6 -1 11 2 17 5 13 3 -3 4 -12 1 -19z m-50
-54 c-3 -3 -12 -4 -19 -1 -8 3 -5 6 6 6 11 1 17 -2 13 -5z"/>
<path d="M4942 2059 c-7 -10 -12 -30 -12 -44 0 -16 -6 -25 -15 -25 -8 0 -15
-4 -15 -10 0 -5 20 -10 45 -10 34 0 45 4 45 15 0 9 -7 18 -16 22 -11 4 -13 13
-9 33 8 34 -7 46 -23 19z"/>
<path d="M5270 1630 l0 -50 51 0 c55 0 79 15 79 50 0 35 -24 50 -79 50 l-51 0
0 -50z m45 20 c3 -5 1 -10 -4 -10 -6 0 -11 5 -11 10 0 6 2 10 4 10 3 0 8 -4
11 -10z m55 -20 c0 -14 -6 -20 -22 -19 -19 1 -19 2 -5 6 11 3 16 11 13 19 -3
8 -1 14 4 14 6 0 10 -9 10 -20z m-55 -10 c3 -5 1 -10 -4 -10 -6 0 -11 5 -11
10 0 6 2 10 4 10 3 0 8 -4 11 -10z"/>
<path d="M5813 1630 l0 -50 49 0 c54 0 78 15 78 50 0 35 -24 50 -78 50 l-49 0
0 -50z m42 20 c3 -5 1 -10 -4 -10 -6 0 -11 5 -11 10 0 6 2 10 4 10 3 0 8 -4
11 -10z m55 -20 c0 -14 -6 -20 -22 -19 -19 1 -19 2 -5 6 11 3 16 11 13 19 -3
8 -1 14 4 14 6 0 10 -9 10 -20z m-55 -10 c3 -5 1 -10 -4 -10 -6 0 -11 5 -11
10 0 6 2 10 4 10 3 0 8 -4 11 -10z"/>
<path d="M5591 1652 c-6 -11 -11 -32 -11 -46 0 -16 -6 -26 -15 -26 -8 0 -15
-4 -15 -10 0 -5 20 -10 45 -10 47 0 62 20 29 38 -11 6 -15 17 -12 30 8 31 -7
49 -21 24z"/>
<path d="M6261 1652 c-6 -11 -11 -32 -11 -46 0 -16 -6 -26 -15 -26 -8 0 -15
-4 -15 -10 0 -5 20 -10 45 -10 47 0 62 20 29 38 -11 6 -15 17 -12 30 8 31 -7
49 -21 24z"/>
</g>
</svg>
